<?xml version="1.0" encoding="UTF-8"?>
<svg version="1.1" xmlns="http://www.w3.org/2000/svg" width="2000" height="2152">
<path d="M0 0 C1.1597937 0.12728485 1.1597937 0.12728485 2.34301758 0.25714111 C80.06706034 8.79425863 156.77587845 30.22528022 322 151 C322.80566406 151.928125 323.61132812 152.85625 324.44140625 153.8125 C366.89875403 202.90356788 394.12798553 262.18494317 408.375 325.1875 C408.6016333 326.18797363 408.8282666 327.18844727 409.06176758 328.21923828 C410.50586671 334.91781619 411.58147313 341.64703298 412.58056641 348.4230957 C412.71783646 349.34645973 412.85510651 350.26982376 412.99653625 351.22116852 C413.3322514 353.48059998 413.66670848 355.74020998 414 358 C415.23727267 357.99943042 415.23727267 357.99943042 416.49954075 357.99884933 C465.33303268 357.97649531 514.16652407 357.95932563 563.00002008 357.94893467 C568.85702837 357.94768389 574.71403665 357.94638957 580.57104492 357.94506836 C581.73712237 357.94480605 582.90319982 357.94454374 584.10461295 357.94427348 C603.01206235 357.93991629 621.91950872 357.93202847 640.82695632 357.9228472 C660.21232369 357.91351202 679.59768947 357.90794468 698.98305899 357.90591151 C710.95514488 357.904536 722.92722221 357.9001839 734.89930547 357.89208353 C743.09711034 357.88681774 751.29491076 357.88519532 759.4927172 357.88649862 C764.22994529 357.88714227 768.96715839 357.88612155 773.70438385 357.88079453 C778.03381696 357.87596132 782.36322487 357.87566083 786.69265909 357.87910111 C788.26601826 357.87952688 789.83937895 357.87823048 791.4127351 357.87511682 C793.53724759 357.87115401 795.66166685 357.87323586 797.78617764 357.87695217 C798.97052535 357.87657245 800.15487306 357.87619273 801.37511009 357.8758015 C804 358 804 358 805 359 C805.25403194 361.75155951 805.44478907 364.48468143 805.59787142 367.2425679 C805.67675058 368.56355224 805.67675058 368.56355224 805.75722326 369.91122314 C805.93494888 372.90727423 806.10589459 375.90367563 806.27695656 378.90011406 C806.40378463 381.06192431 806.53102455 383.22371043 806.65864223 385.38547421 C807.01163251 391.38555685 807.35870195 397.38597016 807.70489304 403.38644842 C808.0428365 409.22801698 808.3851895 415.06932597 808.72743132 420.91064404 C809.43704571 433.02491792 810.14218709 445.13944854 810.84494781 457.25412178 C811.55832704 469.5515272 812.27374458 481.8488115 812.99167252 494.14595222 C813.03696554 494.92178204 813.08225857 495.69761186 813.12892411 496.49695168 C813.35994274 500.45393658 813.59099463 504.41091953 813.82205815 508.36790181 C815.50121796 537.12484471 817.17579853 565.88205284 818.84801102 594.63940048 C820.51966436 623.38689517 822.19329311 652.13427379 823.86948776 680.88150406 C823.92181918 681.77901868 823.9741506 682.6765333 824.02806782 683.60124533 C824.50648117 691.80630008 824.98491797 700.01135346 825.46338295 708.21640519 C826.65478942 728.64748485 827.84589433 749.07858208 829.03679466 769.50969124 C829.09108467 770.44108763 829.14537468 771.37248402 829.20130984 772.33210454 C831.84901355 817.75641929 834.49324858 863.18093588 837.13720703 908.60546875 C838.05339537 924.34601009 838.96959853 940.08655057 839.88586426 955.8270874 C839.94255247 956.80093508 839.99924069 957.77478276 840.05764673 958.77814098 C842.64592338 1003.24183212 845.23660984 1047.70538274 847.82797943 1092.16889372 C847.9946182 1095.02813656 848.16125559 1097.88737948 848.32789258 1100.74662242 C849.54511115 1121.63226584 850.76238277 1142.51790616 851.97968149 1163.4035449 C854.17029773 1200.98876585 856.36074722 1238.57399652 858.55096436 1276.15924072 C858.60470607 1277.08147143 858.65844779 1278.00370214 858.71381804 1278.95387924 C861.9867838 1335.11940279 865.25776814 1391.28504145 868.52693463 1447.45078627 C868.84235225 1452.86979823 869.15777691 1458.28880978 869.47320345 1463.70782122 C869.52504956 1464.59853486 869.57689566 1465.4892485 869.63031286 1466.40695347 C869.73488478 1468.2034939 869.83945671 1470.00003434 869.94402864 1471.79657478 C870.20448443 1476.27119719 870.46493879 1480.74581969 870.7253931 1485.22044219 C870.80249271 1486.54501847 870.80249271 1486.54501847 870.88114989 1487.89635387 C870.98481178 1489.6772719 871.08847365 1491.45818993 871.19213553 1493.23910796 C871.3987457 1496.78868459 871.60535595 1500.33826122 871.81196624 1503.88783784 C871.91490693 1505.65636479 872.0178476 1507.42489174 872.12078824 1509.1934187 C872.37703635 1513.59577691 872.63328493 1517.9981351 872.88953447 1522.40049324 C873.34676335 1530.25567505 873.80398981 1538.110857 874.26120123 1545.96603982 C878.73686526 1622.86076097 883.21529524 1699.75531559 889.3257056 1804.17883077 C890.3368289 1821.45507036 891.34720901 1838.73135329 892.35702324 1856.00766945 C892.49484793 1858.36554054 892.63267281 1860.72341162 892.77049788 1863.08128268 C893.30588307 1872.24065262 893.84125024 1881.40002362 894.37651037 1890.55940087 C895.80196381 1914.95147155 897.22944462 1939.34342025 898.66244474 1963.73504883 C899.60753002 1979.82231531 900.54957662 1995.90975703 901.48817554 2011.99740329 C902.02584475 2021.2111627 902.56607607 2030.42476289 903.11030895 2039.63813698 C903.46588836 2045.66184467 903.81813913 2051.6857409 904.16763374 2057.70980469 C904.36410715 2061.09464842 904.56251751 2064.47934658 904.76410468 2067.86389171 C904.97989374 2071.49046617 905.18990345 2075.11733247 905.39851952 2078.74432564 C905.4604641 2079.76173655 905.52240869 2080.77914747 905.58623038 2081.82738902 C906.06108478 2090.2578565 906 2098.50983053 906 2107 C259.86 2107 -386.28 2107 -1052 2107 C-1052 2085.17657231 -1052 2085.17657231 -1051.43689209 2074.59279412 C-1051.37590672 2073.37206316 -1051.31492135 2072.15133221 -1051.25208793 2070.8936094 C-1051.08421781 2067.55260818 -1050.91211183 2064.21187764 -1050.73809079 2060.87119474 C-1050.5482307 2057.20532429 -1050.36407181 2053.53916627 -1050.17913958 2049.87304452 C-1049.853809 2043.43892347 -1049.52491963 2037.00499215 -1049.19365419 2030.57117405 C-1048.69776553 2020.93969353 -1048.20750184 2011.30793215 -1047.7182981 2001.67611007 C-1046.88422354 1985.2574192 -1046.04557758 1968.83896471 -1045.204422 1952.42063522 C-1044.3523423 1935.78874695 -1043.50237313 1919.15675281 -1042.65496635 1902.52462578 C-1042.60139204 1901.4731455 -1042.54781773 1900.42166522 -1042.49261995 1899.33832191 C-1042.27441968 1895.0556569 -1042.05623473 1890.77299112 -1041.83806909 1886.49032435 C-1039.80729709 1846.62558746 -1037.77180513 1806.76109288 -1035.73332405 1766.8967495 C-1033.7692628 1728.48765913 -1031.80690116 1690.07848263 -1029.84692192 1651.66918373 C-1029.72383788 1649.25717862 -1029.60075364 1646.84517353 -1029.47766922 1644.43316844 C-1028.98305655 1634.74051437 -1028.4884553 1625.04785972 -1027.99386884 1615.35520432 C-1026.6113461 1588.26132268 -1025.22849559 1561.16745778 -1023.845397 1534.07360554 C-1023.78241593 1532.83985211 -1023.71943486 1531.60609869 -1023.65454528 1530.33495879 C-1021.64781486 1491.02501144 -1019.63965616 1451.71513719 -1017.63048649 1412.40531445 C-1017.5653237 1411.13038867 -1017.50016091 1409.8554629 -1017.43302349 1408.54190301 C-1016.37480225 1387.83765199 -1015.3164986 1367.13340519 -1014.25818975 1346.42915866 C-1010.05909839 1264.28004645 -1005.86412431 1182.13072511 -1001.6730957 1099.98120117 C-1001.40815641 1094.78807367 -1001.14321667 1089.59494619 -1000.87827689 1084.40181872 C-1000.81277171 1083.11784048 -1000.74726653 1081.83386225 -1000.67977634 1080.51097558 C-999.95435018 1066.29178946 -999.22891132 1052.07260399 -998.50345707 1037.8534193 C-998.43840321 1036.57833288 -998.37334935 1035.30324646 -998.30632417 1033.98952105 C-994.79644066 965.19441966 -991.28328521 896.39948539 -987.76898855 827.60460931 C-987.33650302 819.13833582 -986.90402012 810.67206219 -986.47153807 802.20578852 C-986.28711353 798.59551179 -986.10268587 794.98523521 -985.91825803 791.37495864 C-984.56851801 764.9528148 -983.21923452 738.53064775 -981.87115407 712.10841918 C-981.81036042 710.91687242 -981.74956677 709.72532565 -981.68693089 708.49767141 C-981.38082963 702.49807698 -981.07473629 696.49848214 -980.768646 690.49888714 C-978.55876369 647.18362655 -976.34666001 603.8684804 -974.13055975 560.55353745 C-973.91250838 556.29141227 -973.69446748 552.02928655 -973.47643471 547.76716042 C-973.39616752 546.19812163 -973.39616752 546.19812163 -973.31427877 544.59738509 C-972.46533071 528.00120585 -971.61870141 511.40490917 -970.77302158 494.80856311 C-969.94244302 478.50955477 -969.10940629 462.21067364 -968.27371138 445.91192681 C-967.78320479 436.34403245 -967.29460513 426.77604521 -966.80876743 417.20791261 C-966.48647506 410.86436555 -966.16170179 404.52094874 -965.83485684 398.17763462 C-965.64929192 394.57486866 -965.46482736 390.97205555 -965.28340186 387.36907857 C-965.08880888 383.50507979 -964.88891205 379.6413661 -964.68845707 375.77766675 C-964.60519895 374.09878451 -964.60519895 374.09878451 -964.52025886 372.38598546 C-964.26383806 367.52340155 -963.96599604 362.78566984 -963 358 C-962.3067187 358.00130151 -961.6134374 358.00260303 -960.89914757 358.00394398 C-919.62025966 358.08028314 -878.341571 358.10893633 -837.06261796 358.07740569 C-832.0833308 358.0736427 -827.10404345 358.07026991 -822.12475586 358.06713867 C-820.63810403 358.06619394 -820.63810403 358.06619394 -819.12141883 358.06523012 C-803.16701786 358.05601753 -787.21281297 358.07826642 -771.25845296 358.11256976 C-754.83344283 358.14716856 -738.40868626 358.14696743 -721.98366827 358.11582941 C-712.78076371 358.09934489 -703.57841853 358.09806079 -694.37556648 358.13676643 C-642.88481088 358.70893769 -642.88481088 358.70893769 -592.45610267 349.35637981 C-585.48098264 347.40692041 -578.46243852 346.80388487 -571.5625 349.1875 C-568.71567154 351.20111038 -566.4371456 353.51403012 -564 356 C-563.8047876 354.95585937 -563.6095752 353.91171875 -563.40844727 352.8359375 C-555.83562247 312.59205631 -545.77597877 274.12377625 -528 237 C-527.42064697 235.77772705 -527.42064697 235.77772705 -526.82958984 234.53076172 C-510.51207701 200.28602644 -488.49570227 169.94638529 -463 142 C-462.091915 140.98745685 -461.18438828 139.97441282 -460.27734375 138.9609375 C-455.83146389 134.01663373 -451.37767076 129.23288734 -446.26953125 124.95703125 C-443.83054271 122.8538759 -441.50233837 120.65779122 -439.16552734 118.44262695 C-431.78930533 111.4697135 -424.1120817 105.09510714 -416 99 C-415.39542969 98.54383301 -414.79085937 98.08766602 -414.16796875 97.61767578 C-338.34301157 40.60928035 -245.80154243 10.02171511 -152.01898193 0.21289062 C-149.97880998 -0.00223437 -147.93990586 -0.22743049 -145.90087891 -0.453125 C-98.0992101 -5.62857624 -47.76458233 -5.39634169 0 0 Z M-275 158 C-275.76119141 158.36496582 -276.52238281 158.72993164 -277.30664062 159.10595703 C-303.301631 171.71209422 -326.18259083 189.12482152 -347 209 C-347.67417969 209.63292969 -348.34835937 210.26585937 -349.04296875 210.91796875 C-354.18081145 215.86769821 -358.56821539 221.42193831 -363 227 C-363.77214844 227.94359375 -364.54429687 228.8871875 -365.33984375 229.859375 C-385.6597778 255.28399264 -399.1166563 284.85467956 -408 316 C-408.36851074 317.26408691 -408.73702148 318.52817383 -409.11669922 319.83056641 C-409.43783691 321.0685498 -409.75897461 322.3065332 -410.08984375 323.58203125 C-410.38624756 324.69425049 -410.68265137 325.80646973 -410.98803711 326.95239258 C-411.33304107 330.22392615 -411.33304107 330.22392615 -408.61938477 332.77612305 C-407.75498779 333.51000244 -406.89059082 334.24388184 -406 335 C-404.57337781 337.85324437 -404.68966132 339.83454549 -405 343 C-407.07891677 346.51816683 -408.44139093 347.77440787 -412.25 349.3125 C-413.1575 349.539375 -414.065 349.76625 -415 350 C-415 352.64 -415 355.28 -415 358 C-190.27 358 34.46 358 266 358 C264.21883393 342.83619178 264.21883393 342.83619178 261.375 327.9375 C260.9869519 326.2213147 260.9869519 326.2213147 260.59106445 324.47045898 C248.05950071 270.96876072 217.51572366 219.78814235 172.64306641 187.19433594 C170.99145599 185.9937894 169.36070715 184.7684226 167.73046875 183.5390625 C153.19682153 172.72357294 137.39450866 163.66846407 121 156 C120.32888184 155.68111816 119.65776367 155.36223633 118.96630859 155.03369141 C72.81536543 133.22062529 20.80865924 122.28429079 -30 119 C-31.22968506 118.91459961 -32.45937012 118.82919922 -33.72631836 118.74121094 C-47.03998156 117.8701763 -60.3487956 117.75689973 -73.6875 117.75 C-74.86953003 117.74932526 -76.05156006 117.74865051 -77.26940918 117.74795532 C-145.12059739 117.8090239 -213.45094953 128.17019316 -275 158 Z " fill="#002E99" transform="translate(1073,24)"/>
<path d="M0 0 C5.93420889 2.13923268 10.51382019 5.80711026 15.125 10 C16.45242609 11.18307632 17.78056541 12.36535282 19.109375 13.546875 C19.76744141 14.13533203 20.42550781 14.72378906 21.10351562 15.33007812 C22.7773349 16.80393547 24.47397806 18.23257435 26.203125 19.640625 C34.54385358 26.46674044 42.18128834 33.96498945 49.8125 41.5625 C50.34856873 42.09339233 50.88463745 42.62428467 51.43695068 43.17126465 C58.43141737 50.11242842 64.87460611 57.26517995 71 65 C72.1057657 66.33762731 73.2147802 67.67258062 74.328125 69.00390625 C89.01530522 86.7979433 89.01530522 86.7979433 89.17578125 98.78515625 C89.49759771 113.7416679 90.54533413 128.54571686 91.9375 143.4375 C92.06567612 144.8321196 92.06567612 144.8321196 92.19644165 146.25491333 C93.04405915 155.41761104 93.90178181 164.53134012 95.59228516 173.58520508 C96.02409758 176.14272407 96.24589909 178.66386083 96.4375 181.25 C96.79390525 185.62051133 97.49498128 189.83001874 98.33984375 194.1328125 C99.5052961 200.1903611 100.55235945 206.2574456 101.5078125 212.3515625 C101.63614975 213.1675441 101.764487 213.9835257 101.89671326 214.82423401 C102.16567318 216.5345984 102.43457755 218.24497152 102.70343018 219.95535278 C106.11495992 241.55932055 110.19561868 263.00244724 114.49513245 284.44515991 C115.70629622 290.49261781 116.86838854 296.54681052 117.99902344 302.60986328 C121.08060921 319.09928456 124.80371109 335.44637458 128.50396729 351.80554199 C129.13133247 354.58101733 129.75631893 357.35702502 130.38114929 360.1330719 C131.67702274 365.89044165 132.97730254 371.64679757 134.28125 377.40234375 C135.45415164 382.58065095 136.62033472 387.76040382 137.78125 392.94140625 C142.57404039 414.31807359 147.47045279 435.64046708 153.25390625 456.77416992 C155.4515409 464.84315983 157.4948729 472.94470781 159.49285889 481.06472778 C162.75972346 494.33643883 166.33866144 507.48070297 170.27441406 520.57177734 C171.25465639 523.85222492 172.19230341 527.14321565 173.125 530.4375 C177.32821261 545.2054475 181.78184471 559.89226281 186.3125 574.5625 C186.86793885 576.36390137 187.42327789 578.16533351 187.97851562 579.96679688 C189.31786546 584.31155193 190.65854625 588.6558941 192 593 C192.99 593 193.98 593 195 593 C209.46026008 556.19090576 222.86962555 519.04024919 235.125 481.4375 C235.42510986 480.51701874 235.72521973 479.59653748 236.03442383 478.64816284 C246.57226176 446.24416528 255.89409087 413.48958247 265.11340332 380.69184875 C266.44787402 375.94866346 267.79505499 371.2093629 269.15234375 366.47265625 C270.76326107 360.84565238 272.3379364 355.21010156 273.875 349.5625 C274.12620605 348.64073975 274.37741211 347.71897949 274.63623047 346.76928711 C276.74899223 338.9859463 278.79816688 331.18661202 280.81982422 323.37915039 C282.17630309 318.14144757 283.5551282 312.91038718 284.953125 307.68359375 C286.88297859 300.4657339 288.76308499 293.23565982 290.625 286 C290.79030212 285.3576944 290.95560425 284.71538879 291.12591553 284.05361938 C291.84071158 281.2760696 292.55544199 278.49850316 293.26956177 275.72077942 C294.46994155 271.05326176 295.67620841 266.38729991 296.8855896 261.72210693 C301.59976428 243.52985349 306.17313839 225.33037869 310.31445312 206.99755859 C312.21829365 198.67300234 314.25400597 190.37881339 316.25878906 182.078125 C316.98718948 179.05319994 317.70951596 176.02689381 318.4296875 173 C320.54466828 164.12254246 322.67452412 155.25032735 324.91015625 146.40234375 C325.07513107 145.74882431 325.2401059 145.09530487 325.41007996 144.42198181 C326.78096323 138.99264806 326.78096323 138.99264806 327.44955444 136.35458374 C329.37232424 128.75619991 331.21902907 121.15011305 332.890625 113.4921875 C333.04322281 112.79688934 333.19582062 112.10159119 333.3530426 111.38522339 C334.07735841 108.07666345 334.78810798 104.766622 335.47827148 101.45068359 C338.60083283 87.01236474 344.08173977 70.55933807 357 62 C371.94534592 52.39429563 389.7448121 52.38251366 406.8671875 52.43359375 C409.03940087 52.42834169 411.21161196 52.42205952 413.38381958 52.41481018 C417.91044944 52.40447322 422.43676364 52.40886988 426.96337891 52.42358398 C432.71101284 52.44075536 438.45764537 52.41726007 444.20516777 52.38209438 C448.68387238 52.35993814 453.16234411 52.36160569 457.64108658 52.3698597 C459.75778425 52.37066938 461.87450077 52.36399826 463.99114609 52.34908867 C481.30684672 52.24577904 499.2958873 53.07978551 513.1015625 64.78125 C524.5458484 77.69275204 527.59879595 95.59028568 531.1875 111.9375 C531.49044287 113.29507529 531.79409707 114.65249201 532.09838867 116.00976562 C533.37427038 121.70189562 534.64425715 127.39532309 535.90722656 133.09033203 C542.85967599 164.37623727 550.86727688 195.39843641 558.80479431 226.44528198 C561.17468931 235.72159132 563.49939858 245.00820983 565.8046875 254.30078125 C567.77739616 262.23984805 569.80848772 270.13863634 572.11865234 277.98681641 C573.78731344 283.69169598 575.28732862 289.44293032 576.8125 295.1875 C577.16068871 296.4943133 577.50891543 297.80111647 577.85717773 299.10791016 C579.84214755 306.56851144 581.78657376 314.03850072 583.7019043 321.51733398 C586.38390382 331.98131682 589.20056536 342.38555954 592.27716064 352.74076843 C594.31528839 359.61728531 596.26751496 366.51334743 598.1796875 373.42578125 C601.8062856 386.44972863 605.63891608 399.40901572 609.51660156 412.36010742 C610.63330932 416.09025568 611.74658144 419.82141675 612.859375 423.55273438 C629.44095392 479.09277766 646.45962493 535.39405413 669.1887207 588.79272461 C670 591 670 591 670 594 C671.93597072 593.92821488 671.93597072 593.92821488 674 593 C675.50181278 590.55690699 675.50181278 590.55690699 676.62890625 587.4296875 C677.10070313 586.24004395 677.5725 585.05040039 678.05859375 583.82470703 C678.56082731 582.50849307 679.06210126 581.19191261 679.5625 579.875 C680.09310637 578.50739985 680.62436746 577.14005355 681.15625 575.77294922 C682.79918702 571.5258394 684.4026564 567.26442527 686 563 C686.24143738 562.35925537 686.48287476 561.71851074 686.73162842 561.05834961 C706.93973045 507.40555019 721.83057063 450.61168101 732.38085938 394.27441406 C732.98090199 391.10100259 733.61541597 387.93691579 734.265625 384.7734375 C740.82200846 352.86381769 746.5317969 320.75450394 751.44848633 288.55249023 C752.08136267 284.47591488 752.74056785 280.40399388 753.40234375 276.33203125 C756.22149387 258.92945708 758.86283089 241.56057305 760.68212891 224.01953125 C760.99338187 221.06286718 761.3273045 218.10965666 761.66796875 215.15625 C763.59969906 198.15135366 765.10547943 181.10828123 766.625 164.0625 C766.73527527 162.82586609 766.84555054 161.58923218 766.95916748 160.31512451 C767.27882423 156.72192046 767.59688045 153.12857954 767.9140625 149.53515625 C768.056091 147.93162544 768.056091 147.93162544 768.20098877 146.29570007 C769.57769785 131.33752954 769.57769785 131.33752954 770.17578125 116.3359375 C770.19962891 115.02882813 770.22347656 113.72171875 770.24804688 112.375 C770.28311478 110.36999891 770.3125625 108.36562271 770.32592773 106.36035156 C770.42139364 94.27583619 772.080475 84.46865613 780.0625 75.125 C780.78095093 74.24920288 780.78095093 74.24920288 781.51391602 73.35571289 C782.99523333 71.55823273 784.49660923 69.77902891 786 68 C786.91517733 66.89284766 787.82926855 65.78479651 788.7421875 64.67578125 C798.48648486 52.91328761 808.97338619 41.94093768 819.75 31.125 C820.6373584 30.23296875 821.5247168 29.3409375 822.43896484 28.421875 C827.46568467 23.40739022 832.59344033 18.60101461 838 14 C839.0419961 13.09022093 840.08368614 12.18009113 841.125 11.26953125 C853.5713117 0.63266976 853.5713117 0.63266976 861.5 -0.5 C875.04550773 1.43507253 886.24082104 15.09283766 895.859375 24.08203125 C897.89076784 25.97879108 899.93977693 27.85122425 902.015625 29.69921875 C906.79801493 33.96547644 911.2737305 38.24179552 915.3984375 43.1484375 C916.97782644 44.9743652 918.6370697 46.63805574 920.375 48.3125 C924.49983787 52.38246198 928.07741488 56.84986475 931.6875 61.37548828 C933.11471891 63.14199025 934.57113404 64.88170309 936.03125 66.62109375 C956.61317147 91.36977039 953.26230155 119.14767382 950.61889648 149.71655273 C944.29722899 218.46061498 929.51345289 286.55649215 913.3125 353.5625 C913.13213196 354.3116568 912.95176392 355.0608136 912.76593018 355.83267212 C910.59693399 364.82395981 908.26947388 373.7539809 905.76469421 382.65769958 C904.09144318 388.61805574 902.57614712 394.60672255 901.125 400.625 C898.35480537 411.89936494 895.15144052 423.01994504 891.84375 434.14648438 C890.53598344 438.56927822 889.26524392 443.00238478 888 447.4375 C887.75749512 448.28497803 887.51499023 449.13245605 887.26513672 450.00561523 C885.9372376 454.6602557 884.63305083 459.32064318 883.3515625 463.98828125 C883.06410156 465.02992432 882.77664063 466.07156738 882.48046875 467.14477539 C881.94475112 469.08935089 881.4128809 471.03499499 880.88671875 472.98217773 C877.95357463 483.61391312 874.49633749 494.08433351 871.10583496 504.5769043 C870.01673769 507.94818873 868.93138612 511.32065997 867.84667969 514.69335938 C849.48223117 571.71969621 829.97071942 628.47007878 805 683 C804.49694336 684.11004395 803.99388672 685.22008789 803.47558594 686.36376953 C764.38791373 772.54888284 764.38791373 772.54888284 733 785 C723.95326211 787.88771021 714.94134695 789.14364322 705.47290039 789.17700195 C704.23707718 789.18685875 704.23707718 789.18685875 702.97628784 789.19691467 C700.26674278 789.21651925 697.55725297 789.2282849 694.84765625 789.23828125 C693.91421324 789.24235678 692.98077023 789.2464323 692.01904106 789.25063133 C687.07283632 789.271443 682.12665887 789.28576275 677.18041992 789.29516602 C672.11394351 789.30618713 667.04791148 789.3405514 661.98159122 789.38033772 C658.04948709 789.40669703 654.11748551 789.41487509 650.18530083 789.41844749 C648.32009334 789.42326803 646.45488898 789.43474951 644.58976936 789.45348549 C624.01758022 789.64721032 604.81912566 786.21118311 589.37890625 771.40625 C588.59386719 770.6121875 587.80882812 769.818125 587 769 C586.46084961 768.48566406 585.92169922 767.97132813 585.36621094 767.44140625 C581.0634054 763.28697331 577.51639895 758.91872706 574.125 754 C573.6088916 753.2579834 573.0927832 752.5159668 572.56103516 751.75146484 C567.70051988 744.69024554 563.19767096 737.47285863 559 730 C558.6272998 729.33967773 558.25459961 728.67935547 557.87060547 727.99902344 C518.43331714 657.38844975 493.07715198 576.20189898 468.75 499.4375 C468.4833252 498.59667877 468.21665039 497.75585754 467.94189453 496.88955688 C464.8024418 486.96858723 461.80820785 477.02061 459 467 C458.45545166 465.0977063 458.45545166 465.0977063 457.89990234 463.15698242 C442.72491162 410.10911417 429.39460865 352.36596357 428 297 C426.68 297 425.36 297 424 297 C423.93268677 297.83470825 423.93268677 297.83470825 423.86401367 298.6862793 C415.65824425 398.63725154 385.04536075 497.09829682 309 702 C308.42668945 703.27641357 308.42668945 703.27641357 307.84179688 704.57861328 C293.53691638 736.31047121 274.87104942 770.46006922 241 784 C226.94191042 789.3094008 212.15276516 789.31378427 197.34765625 789.30078125 C195.47545784 789.30468042 193.60326029 789.30901754 191.73106384 789.31376648 C187.8288993 789.32117811 183.92682533 789.32097403 180.0246582 789.31567383 C175.06483483 789.30987952 170.10538494 789.32683423 165.14562321 789.3500185 C161.28561802 789.36486446 157.42570061 789.365613 153.56567192 789.36250877 C151.73873593 789.36301633 149.91179427 789.36814553 148.08488655 789.37832069 C126.89370574 789.48191385 109.05018704 786.41808865 93.0625 771.4375 C80.31626921 758.26805451 72.07411705 740.64991807 64.13818359 724.32519531 C62.90691378 721.80983415 61.65061515 719.30774333 60.39453125 716.8046875 C46.47377684 688.7617067 35.14035389 659.43957638 24.69287109 629.949646 C23.97668961 627.93440771 23.25476478 625.92130789 22.53125 623.90869141 C8.3172389 584.35391457 -4.59150459 544.36408632 -16.40551758 504.02947998 C-16.95996587 502.13667092 -17.5160521 500.24434187 -18.07226562 498.35205078 C-19.53221076 493.38340985 -20.98410191 488.41260214 -22.421875 483.4375 C-23.51964892 479.64068795 -24.63670373 475.85016612 -25.765625 472.0625 C-29.04677126 461.01579614 -32.07458677 449.94859176 -34.80981445 438.75390625 C-36.31657533 432.62161287 -37.96074468 426.55522648 -39.75 420.5 C-46.37535598 397.87480301 -51.92262129 374.81703647 -56.84765625 351.76513672 C-58.15146044 345.68457252 -59.56473989 339.63725569 -61.03384399 333.59487915 C-64.57659819 319.01192725 -67.79671534 304.37498659 -70.875 289.6875 C-71.13356781 288.4566568 -71.39213562 287.2258136 -71.65853882 285.95767212 C-97.01677284 164.97745992 -97.01677284 164.97745992 -97.29516602 111.56005859 C-97.30677644 110.01276573 -97.32736824 108.46551562 -97.35668945 106.91845703 C-97.66955599 90.30332142 -97.66955599 90.30332142 -93 83 C-92.09701172 81.56527344 -92.09701172 81.56527344 -91.17578125 80.1015625 C-79.78018378 64.95521282 -67.28795576 51.21418662 -53.95489502 37.77966309 C-52.95998785 36.77671214 -51.96656535 35.77228577 -50.97479248 34.76623535 C-45.09849277 28.81437146 -39.06486021 23.2245736 -32.49853516 18.03100586 C-29.86971518 15.89409425 -27.40310207 13.63480342 -24.9375 11.3125 C-17.89608274 4.87946119 -9.90709312 -1.25432681 0 0 Z " fill="#EFF4FE" transform="translate(563,879)"/>
<path d="M0 0 C3.56698054 2.80262757 5.31264841 5.39963544 6.91894531 9.55273438 C7.43672546 10.88836426 7.43672546 10.88836426 7.96496582 12.25097656 C9.571832 16.51877068 11.13796824 20.79921301 12.671875 25.09375 C13.16279633 26.4637616 13.16279633 26.4637616 13.66363525 27.8614502 C14.34687695 29.77024213 15.02913921 31.67938492 15.71044922 33.58886719 C16.75768602 36.52152374 17.81035057 39.45219615 18.86328125 42.3828125 C19.52897458 44.24467416 20.19435084 46.10664922 20.859375 47.96875 C21.17493347 48.84575562 21.49049194 49.72276123 21.81561279 50.62634277 C22.10301331 51.43478638 22.39041382 52.24322998 22.68652344 53.07617188 C22.94093201 53.78769409 23.19534058 54.49921631 23.4574585 55.2322998 C24 57 24 57 24 59 C2.64827205 59.39366397 -15.00781006 57.23179491 -33.984375 46.98046875 C-40.96118575 43.58671003 -50.45264301 43.97991722 -57.890625 45.6484375 C-68.31870216 49.48518287 -75.14953446 56.10823093 -80 66 C-80.37511719 66.74765625 -80.75023437 67.4953125 -81.13671875 68.265625 C-82.33919897 72.07438588 -82.38328307 75.65119591 -82.375 79.625 C-82.37258301 80.82225708 -82.37258301 80.82225708 -82.37011719 82.04370117 C-82.1860534 90.96267431 -80.07718417 98.27168896 -74 105 C-74 105.66 -74 106.32 -74 107 C-73.42894531 107.268125 -72.85789062 107.53625 -72.26953125 107.8125 C-69.14472177 109.44751219 -66.37265433 111.50796816 -63.51171875 113.5625 C-55.80487457 117.97325996 -45.67311218 118.49179094 -37 117 C-34.40779666 116.03472148 -32.07256435 114.76810585 -29.6875 113.375 C-22.60845577 109.36327254 -18.63243183 109.90579569 -11 112 C-1.77003954 113.92032734 7.28634644 114.2080334 16.6875 114.25 C17.82775635 114.25918457 18.9680127 114.26836914 20.14282227 114.27783203 C26.50414421 114.25478209 32.44676112 113.76456122 38.67114258 112.42871094 C41 112 41 112 45 112 C47.6424868 119.01383464 50.00316685 126.07424231 52.16796875 133.25 C52.75051282 135.17540386 53.36387599 137.09162796 54 139 C55.9538489 148.89010115 50.59529662 156.71175592 46 165 C44.81060502 167.17675947 43.62185166 169.35386961 42.43359375 171.53125 C38.66409037 178.41997744 34.85079382 185.28410399 31.03173828 192.14544678 C29.4042189 195.07091864 27.78037071 197.99842112 26.15625 200.92578125 C21.82432503 208.73129136 17.48492202 216.53263624 13.14550781 224.33398438 C6.07621184 237.04458597 -0.97897345 249.76268306 -8 262.5 C-15.01786935 275.23158924 -22.07028263 287.9437292 -29.13671875 300.6484375 C-31.65232774 305.17336939 -34.16426402 309.70033507 -36.67578125 314.22753906 C-37.92401555 316.47526531 -39.17398903 318.7220267 -40.42578125 320.96777344 C-43.26914033 326.06935822 -46.10257371 331.1750919 -48.88465881 336.31033325 C-49.83102263 338.05466598 -50.7835136 339.79566998 -51.73608398 341.53662109 C-52.9200836 343.7007717 -54.09468637 345.87010039 -55.25805664 348.04541016 C-58.95166651 354.76055869 -62.55320072 360.13701786 -70 363 C-81.07654749 365.84535165 -90.86783884 358.26285808 -100 353 C-101.77225983 351.99921372 -103.54571453 351.00054066 -105.3203125 350.00390625 C-109.13078373 347.86030427 -112.93420714 345.70477825 -116.734375 343.54296875 C-123.50159689 339.70383029 -130.30971074 335.94031602 -137.125 332.1875 C-137.73218872 331.85305878 -138.33937744 331.51861755 -138.96496582 331.17404175 C-142.0660622 329.4661656 -145.16764128 327.75916872 -148.26953125 326.05273438 C-154.39036224 322.68523773 -160.50788342 319.31173801 -166.625 315.9375 C-167.22513916 315.60649292 -167.82527832 315.27548584 -168.44360352 314.93444824 C-180.52891203 308.26795228 -192.59530523 301.5676024 -204.65722656 294.85888672 C-209.14597303 292.36273454 -213.63576636 289.86846934 -218.12573242 287.37451172 C-220.36048502 286.13303639 -222.59502571 284.89117952 -224.8293457 283.64892578 C-230.0830886 280.72834417 -235.33860161 277.81109808 -240.60073853 274.90567017 C-243.07634876 273.53852301 -245.55090818 272.16948007 -248.02539062 270.80029297 C-249.76460521 269.838973 -251.5053289 268.88038488 -253.24609375 267.921875 C-270.45107383 258.39843712 -270.45107383 258.39843712 -274 250 C-275.58388724 240.28831886 -272.4612731 233.5998868 -267.625 225.375 C-266.6664209 223.6744043 -266.6664209 223.6744043 -265.68847656 221.93945312 C-264.40396973 219.66433566 -263.10923286 217.39495984 -261.80371094 215.13183594 C-259.80944721 211.66913763 -257.87300036 208.17799077 -255.94799805 204.67651367 C-254.36682706 201.80385433 -252.76481906 198.94304528 -251.16357422 196.08154297 C-249.20583302 192.5792976 -247.2598292 189.07054174 -245.3125 185.5625 C-244.47922317 184.06246861 -243.64588744 182.56246994 -242.8125 181.0625 C-242.14541016 179.86173828 -242.14541016 179.86173828 -241.46484375 178.63671875 C-221.23046875 142.21484375 -221.23046875 142.21484375 -219.36425781 138.85571289 C-218.11745779 136.61144019 -216.87071334 134.36713661 -215.62402344 132.12280273 C-212.51236459 126.52125046 -209.39976855 120.92022318 -206.28515625 115.3203125 C-200.17462668 104.33162906 -194.07632405 93.33643693 -188.00650024 82.32522583 C-187.00587296 80.51065024 -186.004422 78.69653184 -185.00268555 76.88256836 C-184.33770505 75.67823525 -183.67274736 74.47388955 -183.0078125 73.26953125 C-182.51457237 72.37617317 -182.51457237 72.37617317 -182.0113678 71.46476746 C-179.96600514 67.75777616 -177.92911555 64.04625511 -175.89764404 60.33163452 C-174.54958414 57.86902779 -173.19662334 55.40913446 -171.84277344 52.94970703 C-170.90650569 51.24486833 -169.97657755 49.53655277 -169.046875 47.828125 C-158.76598954 29.17961303 -158.76598954 29.17961303 -149.8979187 26.3228302 C-147.40809246 25.71389517 -144.91397042 25.19520154 -142.3984375 24.703125 C-140.99182358 24.41107681 -140.99182358 24.41107681 -139.55679321 24.11312866 C-137.54392703 23.69671851 -135.52982575 23.28624242 -133.51464844 22.88116455 C-130.34579564 22.24412904 -127.18042539 21.59191195 -124.015625 20.93505859 C-120.79532506 20.26677243 -117.57488936 19.59928939 -114.35345459 18.93649292 C-105.30081144 17.07349596 -96.26778461 15.13034524 -87.24591064 13.12390137 C-85.07662276 12.6420208 -82.90629817 12.16505251 -80.73583984 11.68847656 C-73.07355239 9.99327365 -65.49089487 8.08339706 -57.91552734 6.03076172 C-51.36555469 4.28306019 -44.75883189 2.77232072 -38.14672852 1.28027344 C-36.5839114 0.92524376 -35.02237882 0.56451399 -33.4621582 0.19824219 C-8.12536052 -5.74720622 -8.12536052 -5.74720622 0 0 Z " fill="#FEC120" transform="translate(504,375)"/>
<path d="M0 0 C0.80308594 -0.00322266 1.60617187 -0.00644531 2.43359375 -0.00976562 C7.75677837 0.03768578 12.42373395 0.67050605 17.5 2.3125 C20.22285815 5.30764397 21.3190302 7.34732771 22.0625 11.3125 C21.27353053 15.52033718 19.63750535 17.4478212 16.5 20.3125 C13.07967771 20.89468252 11.04873433 20.51668022 7.8125 19.3125 C1.14471946 17.29958512 -5.23258947 17.36246253 -11.625 20.25 C-30.25855521 30.84728258 -39.32578268 54.89366007 -48.91259766 72.97705078 C-59.78659821 93.44740689 -70.88737405 106.26022696 -93.5 113.3125 C-125.61960023 122.24749509 -158.61194484 119.53618226 -188.26953125 104.1796875 C-193.04423479 101.41994349 -193.04423479 101.41994349 -194.5 99.3125 C-195.18041539 95.91609316 -195.07390647 92.72250738 -194.5 89.3125 C-192.5625 86.625 -192.5625 86.625 -189.5 85.3125 C-182.75344054 84.55523312 -177.46958747 87.67663732 -171.69140625 90.75390625 C-166.49945184 93.28951189 -161.04964717 94.76428307 -155.5 96.3125 C-154.283125 96.704375 -153.06625 97.09625 -151.8125 97.5 C-129.18097894 103.05112781 -103.20886921 99.69599289 -82.5 89.3125 C-71.55923507 81.93133605 -65.67651389 66.2033959 -59.66333008 54.93237305 C-35.32587892 9.36346835 -35.32587892 9.36346835 -11.67944336 0.88818359 C-7.79866301 -0.13689539 -3.9897638 -0.08005144 0 0 Z " fill="#FABF21" transform="translate(647.5,352.6875)"/>
</svg>
