<?xml version="1.0" encoding="UTF-8"?>
<svg version="1.1" xmlns="http://www.w3.org/2000/svg" width="2000" height="834">
<path d="M0 0 C0.84167725 0.00182281 1.68335449 0.00364563 2.55053711 0.00552368 C56.60674769 0.201204 110.01909957 15.21429792 149.40478516 53.74804688 C170.43432152 75.20645035 189.9375 109.44543959 189.9375 140.3125 C240.0975 140.3125 290.2575 140.3125 341.9375 140.3125 C345.53697521 201.33172032 345.53697521 201.33172032 346.86743164 223.91552734 C346.90979177 224.63455537 346.95215191 225.35358339 346.99579568 226.09440014 C352.23572923 315.03914386 357.45765063 403.98494625 368.75419998 597.19751167 C369.00432333 601.48553609 369.2544498 605.77356032 369.50457764 610.06158447 C369.56631512 611.12000476 369.6280526 612.17842505 369.69166091 613.26891868 C370.62734081 629.30939288 371.56481253 645.3497617 372.50323486 661.39007568 C373.57853728 679.77017267 374.65157371 698.15040033 375.72160655 716.53080487 C376.32660419 726.92201858 376.93335879 737.31312625 377.54257186 747.70409369 C377.95198894 754.69038696 378.35906163 761.67681432 378.76424502 768.6633544 C378.99593708 772.65728065 379.22863764 776.65114107 379.46415353 780.64484382 C379.67899806 784.28840066 379.89086691 787.93211823 380.10042018 791.57598311 C380.21179766 793.49957948 380.32629733 795.42299431 380.44094032 797.34639883 C380.50709338 798.50683596 380.57324645 799.66727309 380.64140415 800.86287498 C380.69901969 801.85031334 380.75663524 802.8377517 380.81599671 803.85511243 C380.9852573 808.67143856 380.9375 813.49320062 380.9375 818.3125 C130.4675 818.3125 -120.0025 818.3125 -378.0625 818.3125 C-378.0625 797.6372732 -378.0625 797.6372732 -377.54992008 788.02951336 C-377.49450335 786.92026114 -377.43908661 785.81100892 -377.38199058 784.668143 C-377.19777767 781.0027877 -377.00712095 777.33779835 -376.81642151 773.67277527 C-376.68062682 770.99777832 -376.54519569 768.32276517 -376.41020435 765.64772779 C-376.11732259 759.85828511 -375.82108504 754.06902199 -375.52256966 748.27986717 C-375.07867489 739.67108665 -374.6400807 731.06204162 -374.20251173 722.45293754 C-373.46590774 707.9634167 -372.72501785 693.474118 -371.98159981 678.9849453 C-371.24557508 664.63978099 -370.51131469 650.29452826 -369.7794323 635.94915199 C-369.71102582 634.60838835 -369.71102582 634.60838835 -369.64123739 633.24053856 C-369.4561054 629.61185417 -369.27098602 625.98316914 -369.08588332 622.35448325 C-367.40056795 589.31628298 -365.71081272 556.27831134 -364.01831055 523.24047852 C-362.4215419 492.07136144 -360.82764822 460.90209914 -359.23706055 429.73266602 C-359.18803977 428.77205913 -359.13901898 427.81145225 -359.08851272 426.82173607 C-358.94020838 423.91557495 -358.79190504 421.00941378 -358.64360195 418.10325259 C-358.44661199 414.24302266 -358.24962066 410.3827928 -358.05262852 406.52256298 C-358.00401949 405.57001305 -357.95541046 404.61746312 -357.90532843 403.63604804 C-356.33990504 372.96029273 -354.77184489 342.28467217 -353.20339884 311.60907128 C-352.74455452 302.63471782 -352.28587581 293.66035595 -351.82755399 284.68597579 C-351.78219944 283.79789926 -351.73684489 282.90982272 -351.69011596 281.99483478 C-351.64485697 281.10862851 -351.59959798 280.22242224 -351.5529675 279.30936124 C-350.68093929 262.23447259 -349.80783736 245.15963958 -348.93239827 228.08492544 C-348.53245794 220.28393098 -348.13302001 212.48291169 -347.73509407 204.68181419 C-347.40506957 198.21188847 -347.07393 191.74202109 -346.74128665 185.27222946 C-346.57398794 182.01770641 -346.40738422 178.76315055 -346.2418924 175.50853505 C-344.97916085 150.68751108 -344.97916085 150.68751108 -344.0625 140.3125 C-343.32508166 140.3098218 -342.58766333 140.30714359 -341.82789898 140.30438423 C-325.73416759 140.24559069 -309.64060125 140.16982966 -293.54703331 140.07678509 C-285.72733286 140.03196295 -277.90767658 139.99251763 -270.08789062 139.96606445 C-263.26619452 139.94297366 -256.44463978 139.90945382 -249.62305605 139.86379844 C-246.01647884 139.84001432 -242.41004033 139.82118922 -238.80338669 139.81488609 C-234.76113998 139.80762514 -230.71937129 139.77706335 -226.67724609 139.74487305 C-224.91532677 139.74702568 -224.91532677 139.74702568 -223.11781311 139.7492218 C-215.89673391 139.66849153 -209.33843688 138.7102009 -202.32995033 136.95354939 C-197.66513914 136.03834822 -193.59566636 135.80144455 -189.0625 137.3125 C-188.94769287 136.7455542 -188.83288574 136.1786084 -188.71459961 135.59448242 C-182.12100678 103.57996406 -169.85313687 76.91107673 -147.0625 53.3125 C-146.32386719 52.52230469 -145.58523437 51.73210938 -144.82421875 50.91796875 C-108.38394293 12.87885085 -50.87136927 -0.23152182 0 0 Z M-108.08203125 86.05859375 C-117.69812896 97.00235781 -129.01152484 115.11244543 -129.07421875 130.1171875 C-128.83115902 132.8369714 -128.83115902 132.8369714 -128.0625 136.3125 C-129.5475 136.8075 -129.5475 136.8075 -131.0625 137.3125 C-131.0625 138.3025 -131.0625 139.2925 -131.0625 140.3125 C-44.2725 140.3125 42.5175 140.3125 131.9375 140.3125 C130.15555688 120.71112565 123.47693533 101.96249983 109.9375 87.3125 C109.06480469 86.34828125 108.19210937 85.3840625 107.29296875 84.390625 C80.68768645 55.88561465 41.233196 48.65200951 3.875 47.12109375 C-36.37196751 46.44731639 -79.43790881 56.05791906 -108.08203125 86.05859375 Z " fill="#002E99" transform="translate(398.0625,7.6875)"/>
<path d="M0 0 C2.60241164 1.4879317 4.69366573 3.39427913 6.875 5.4375 C7.48432373 5.98664063 8.09364746 6.53578125 8.72143555 7.1015625 C10.49896938 8.71609105 12.25153451 10.35411115 14 12 C14.85464844 12.78503906 15.70929688 13.57007813 16.58984375 14.37890625 C18.8254245 16.51233393 20.91183407 18.72208334 23 21 C24.14867554 22.25043091 24.14867554 22.25043091 25.32055664 23.52612305 C31.37554928 30.76772491 33.28602176 36.67104388 33.5602417 46.20581055 C33.67475365 49.93106439 33.94206694 53.64586699 34.203125 57.36328125 C34.25596649 58.1434964 34.30880798 58.92371155 34.36325073 59.72756958 C35.04581964 68.92742665 36.67689584 77.94167491 38.375 87 C38.51657532 87.76261139 38.65815063 88.52522278 38.80401611 89.3109436 C39.52168007 93.16374529 40.2568044 97.012747 41.00683594 100.859375 C41.72619068 104.55323176 42.41663298 108.25147617 43.09472656 111.953125 C45.91570708 127.21258002 49.32960587 142.26998263 53.08398438 157.32568359 C54.00597215 161.02395546 54.91781924 164.72461837 55.828125 168.42578125 C60.15521338 185.95418965 64.79674238 203.33758896 70.11132812 220.59375 C70.35947266 221.4084375 70.60761719 222.223125 70.86328125 223.0625 C71.08282471 223.77535156 71.30236816 224.48820313 71.52856445 225.22265625 C72 227 72 227 72 229 C72.66 229 73.32 229 74 229 C74.18308716 227.69373657 74.18308716 227.69373657 74.36987305 226.36108398 C74.98154914 223.09841651 75.88309756 220.31206918 77.08203125 217.22265625 C77.72930176 215.52254395 77.72930176 215.52254395 78.38964844 213.78808594 C78.85918945 212.55864258 79.32873047 211.32919922 79.8125 210.0625 C89.88390797 183.263226 97.83248348 155.70247764 105 128 C105.72396517 125.2485829 106.45530246 122.49924748 107.1875 119.75 C107.64576172 118.01943359 107.64576172 118.01943359 108.11328125 116.25390625 C108.98654835 113.04936222 109.92737685 109.87074023 110.875 106.6875 C113.08113971 99.03897671 114.81036791 91.29250922 116.57104492 83.53125 C118.76266224 73.91199002 121.12671573 64.34160052 123.55200195 54.77880859 C125.23806648 48.11641263 126.82107928 41.4448586 128.27709961 34.72802734 C129.81634755 28.91932878 133.04075986 25.38679815 138 22 C142.83759652 19.40886636 147.70085984 19.67681889 153.05078125 19.6640625 C154.02355515 19.6574057 154.99632904 19.6507489 155.99858093 19.64389038 C158.0536409 19.63378209 160.10873356 19.6290728 162.16381836 19.62939453 C165.29140995 19.62502943 168.41758048 19.5887123 171.54492188 19.55078125 C173.5468702 19.54491093 175.5488252 19.54094298 177.55078125 19.5390625 C178.94179802 19.51750595 178.94179802 19.51750595 180.36091614 19.49551392 C187.18993526 19.5430384 192.75625363 20.84139133 197.76733398 25.72094727 C201.15606133 31.52349728 202.63792341 37.40398419 204.0625 43.9375 C204.49736496 45.82528877 204.93235712 47.71304956 205.3699646 49.60020447 C205.69465166 51.00300897 206.01752329 52.40623465 206.33877563 53.80982971 C208.54312963 63.43207489 210.88127248 73.02206581 213.22116089 82.61209106 C213.97713713 85.7185518 214.72537806 88.82679867 215.47290039 91.93530273 C218.44118094 104.1891167 221.75193025 116.29989616 225.34277344 128.38549805 C226.8159227 133.34520918 228.21348418 138.32201776 229.578125 143.3125 C232.12991018 152.59475193 234.91276263 161.80148724 237.75 171 C238.00845703 171.83985443 238.26691406 172.67970886 238.53320312 173.54501343 C243.87634963 190.8784449 249.28111628 208.25607197 256.265625 225.01049805 C257 227 257 227 257 229 C257.66 229 258.32 229 259 229 C259.10183594 228.34 259.20367187 227.68 259.30859375 227 C260.00767069 223.96671701 261.03373615 221.17428959 262.17016602 218.28076172 C267.55774341 204.51037923 271.26725237 190.28917844 275 176 C275.27199219 174.98260742 275.54398437 173.96521484 275.82421875 172.91699219 C280.70570637 154.56185537 283.77034471 135.89869843 286.82249451 117.17153931 C287.59158535 112.45452115 288.38819851 107.74439814 289.2265625 103.0390625 C291.82479577 88.20991764 293.20453108 73.33664252 294.38671875 58.33984375 C294.44097519 57.65237564 294.49523163 56.96490753 294.5511322 56.25660706 C294.82368117 52.68840011 295.05186624 49.12272276 295.22192383 45.5480957 C295.25868729 44.82437271 295.29545074 44.10064972 295.33332825 43.35499573 C295.43143499 41.35784022 295.51691545 39.36007593 295.6015625 37.36230469 C296.23867043 31.98592574 298.43016732 28.92681594 302 25 C302.44375977 24.49871582 302.88751953 23.99743164 303.34472656 23.48095703 C306.8112593 19.57049704 310.38268818 15.77069607 314 12 C315.03253906 10.90558594 315.03253906 10.90558594 316.0859375 9.7890625 C325.22961065 0.31439666 325.22961065 0.31439666 330.92578125 -0.33203125 C340.52249787 0.70446292 351.31824454 14.35232447 357.39160156 21.67871094 C367.71956269 34.74165519 367.12510008 46.35698975 365.3515625 62.64453125 C361.15751024 96.3571554 354.18854066 130.46363369 344.2109375 162.93359375 C343.34861048 165.76409595 342.57508669 168.60357172 341.8515625 171.47265625 C314.0113982 280.94158193 314.0113982 280.94158193 284 302 C281.09128008 303.67799652 278.98378686 304.25641359 275.63378906 304.29052734 C274.77899963 304.30328705 273.92421021 304.31604675 273.04351807 304.32919312 C271.668461 304.33253159 271.668461 304.33253159 270.265625 304.3359375 C269.3136322 304.3425943 268.3616394 304.3492511 267.38079834 304.35610962 C265.36684091 304.36622825 263.35285001 304.37092688 261.33886719 304.37060547 C258.27481954 304.37496469 255.21222906 304.41125416 252.1484375 304.44921875 C250.1875049 304.45509005 248.22656549 304.45905734 246.265625 304.4609375 C245.35701721 304.47530853 244.44840942 304.48967957 243.51226807 304.50448608 C235.75028407 304.44942313 229.59160362 302.14171607 224 296.625 C218.83191656 291.16362024 215.42072855 284.63655489 212 278 C211.47857422 277.00097656 210.95714844 276.00195312 210.41992188 274.97265625 C205.95100284 266.2520916 202.16641956 257.38194044 198.625 248.25 C198.20829544 247.18483154 198.20829544 247.18483154 197.78317261 246.09814453 C192.82737409 233.42611875 188.27561947 220.64281596 183.93603516 207.74609375 C182.83268765 204.50914729 181.67333358 201.29497383 180.50366211 198.08154297 C175.31318416 183.74593719 171.72291778 169.26776945 168.8125 154.3125 C168.56242188 153.03036621 168.31234375 151.74823242 168.0546875 150.42724609 C165.77738223 138.40830592 163.47999435 126.27791115 164 114 C163.34 114 162.68 114 162 114 C161.95319092 114.63599121 161.90638184 115.27198242 161.8581543 115.92724609 C159.38279414 146.3466114 151.3602911 176.06890682 142 205 C141.58153967 206.30300658 141.16325055 207.60606815 140.74511719 208.90917969 C114.53863673 290.39100319 114.53863673 290.39100319 95.16563416 301.00500488 C89.17960777 303.92756914 84.16967404 304.60232989 77.55859375 304.56640625 C76.59147964 304.57260483 75.62436554 304.57880341 74.62794495 304.58518982 C72.59678141 304.59225041 70.56555953 304.58918029 68.53442383 304.57641602 C65.44178268 304.56251924 62.35215356 304.59671529 59.25976562 304.63476562 C57.27604093 304.63571673 55.29231249 304.63385849 53.30859375 304.62890625 C52.39379745 304.64216446 51.47900116 304.65542267 50.53648376 304.66908264 C43.28165769 304.5647241 38.45125704 302.38052871 33.26664734 297.3021698 C29.47982456 293.2024092 26.79704346 288.5616141 24.25 283.625 C23.82299805 282.79887207 23.39599609 281.97274414 22.95605469 281.12158203 C6.91537838 249.34033011 -5.49404542 212.42412208 -13.625 177.75 C-14.03292398 176.06878445 -14.44178588 174.3877962 -14.8515625 172.70703125 C-15.04524414 171.9073291 -15.23892578 171.10762695 -15.43847656 170.28369141 C-17.02990988 163.81140131 -18.80574908 157.38405217 -20.5574646 150.9535675 C-23.95652147 138.46548431 -26.87395208 125.9219954 -29.5 113.25 C-29.69287598 112.32566162 -29.88575195 111.40132324 -30.08447266 110.44897461 C-32.63909584 98.17264955 -35.01729712 85.88220426 -37 73.5 C-37.19529297 72.28086914 -37.39058594 71.06173828 -37.59179688 69.80566406 C-39.02573546 60.49556828 -40.10426398 51.17541988 -40.3125 41.75 C-40.34988281 40.63109375 -40.38726562 39.5121875 -40.42578125 38.359375 C-39.56524205 31.56979963 -35.42275604 27.03357823 -30.875 22.1875 C-30.39635498 21.67687012 -29.91770996 21.16624023 -29.42456055 20.64013672 C-27.95860845 19.08465899 -26.48122316 17.54092983 -25 16 C-24.12214844 15.08089844 -23.24429688 14.16179687 -22.33984375 13.21484375 C-8.36423052 -1.1063797 -8.36423052 -1.1063797 0 0 Z " fill="#EFF4FE" transform="translate(232,341)"/>
<path d="M0 0 C5.14385354 1.60813105 7.82816948 4.54442515 11.4609375 8.41015625 C12.11964844 9.07917969 12.77835938 9.74820312 13.45703125 10.4375 C19.83837576 17.02594697 22.03207956 21.30587655 22.5234375 30.41015625 C24.93950819 62.87025854 31.05229029 106.84286182 45.7109375 136.16015625 C55.63221045 108.53113228 63.63541426 80.70854355 70.671875 52.21875 C70.92071945 51.21360855 71.1695639 50.2084671 71.4259491 49.17286682 C72.64615999 44.23963801 73.85598167 39.30432891 75.04516602 34.36352539 C75.48435788 32.56652504 75.92372106 30.76956654 76.36328125 28.97265625 C76.55663055 28.15353256 76.74997986 27.33440887 76.94918823 26.49046326 C78.31307463 20.96223695 79.51873713 16.52618043 84.58203125 13.37109375 C90.08200976 11.32250706 95.99043832 11.72703566 101.7734375 11.78515625 C102.93166016 11.77355469 104.08988281 11.76195312 105.28320312 11.75 C116.52073363 11.78872785 116.52073363 11.78872785 120.7109375 15.16015625 C123.86671346 21.35387973 125.32167136 27.97342263 126.96875 34.6953125 C127.59608708 37.20805418 128.22361706 39.72074771 128.85131836 42.23339844 C129.17895769 43.55281287 129.50641942 44.87227141 129.83370972 46.19177246 C131.50489088 52.92219083 133.20391198 59.64558249 134.91015625 66.3671875 C135.07693186 67.02421032 135.24370747 67.68123314 135.41553688 68.35816574 C143.73132091 103.08990101 143.73132091 103.08990101 156.7109375 136.16015625 C160.20348178 128.24922724 163.01925514 120.39803531 165.2109375 112.03515625 C165.50718018 110.91262451 165.80342285 109.79009277 166.10864258 108.63354492 C170.55110635 91.41254248 173.59989577 74.03679223 175.8984375 56.41015625 C176.15584717 54.44949219 176.15584717 54.44949219 176.41845703 52.44921875 C177.1603606 46.53775488 177.78963429 40.68169789 178.015625 34.7265625 C178.42091326 24.82688503 178.83283345 17.86748355 186.32495117 10.82250977 C187.76281239 9.57338984 189.23636498 8.36571892 190.7109375 7.16015625 C191.47921875 6.41121094 192.2475 5.66226562 193.0390625 4.890625 C197.7168748 0.36457379 197.7168748 0.36457379 201.06640625 -0.32421875 C204.8489813 0.3686015 206.98216367 2.56388007 209.6484375 5.16015625 C210.437948 5.90749023 210.437948 5.90749023 211.2434082 6.66992188 C222.36378526 17.39947596 222.36378526 17.39947596 222.84814453 24.04174805 C222.7562026 68.60804334 207.21145216 146.6236663 175.69921875 181.37890625 C170.73317256 185.82785922 163.09816844 184.38508225 156.8359375 184.41015625 C154.91587891 184.44109375 154.91587891 184.44109375 152.95703125 184.47265625 C151.72339844 184.4778125 150.48976563 184.48296875 149.21875 184.48828125 C148.09098145 184.49762695 146.96321289 184.50697266 145.80126953 184.51660156 C139.90499034 183.83651248 136.23836957 180.24703158 132.58203125 175.8515625 C113.86567256 148.92970209 104.05736038 109.20437198 99.7109375 77.16015625 C99.46355835 78.34097778 99.46355835 78.34097778 99.21118164 79.5456543 C80.87466695 166.11979619 80.87466695 166.11979619 60.7109375 182.16015625 C54.5161412 185.1672854 48.01790211 184.52854079 41.2734375 184.53515625 C39.96310547 184.55964844 38.65277344 184.58414063 37.30273438 184.609375 C36.03623047 184.61324219 34.76972656 184.61710938 33.46484375 184.62109375 C32.31314697 184.62931152 31.1614502 184.6375293 29.97485352 184.64599609 C25.26968522 183.94562322 22.0608911 181.80690815 19.05859375 178.14453125 C11.67200601 165.30219634 6.51018566 151.50409594 1.8984375 137.47265625 C1.51916611 136.32605026 1.51916611 136.32605026 1.13223267 135.15628052 C-9.76933544 102.08039033 -19.62671612 67.57628737 -22.8515625 32.78515625 C-22.93728516 31.86428223 -23.02300781 30.9434082 -23.11132812 29.99462891 C-23.52936082 24.13655251 -23.12385161 20.5380119 -19.44140625 15.765625 C-17.08894217 13.19741465 -14.71181439 10.66228067 -12.2890625 8.16015625 C-11.51433594 7.34804688 -10.73960937 6.5359375 -9.94140625 5.69921875 C-9.18988281 4.96445312 -8.43835938 4.2296875 -7.6640625 3.47265625 C-6.65472656 2.47685547 -6.65472656 2.47685547 -5.625 1.4609375 C-3.2890625 0.16015625 -3.2890625 0.16015625 0 0 Z " fill="#EDF2FC" transform="translate(863.2890625,408.83984375)"/>
<path d="M0 0 C0.73290253 -0.00287018 1.46580505 -0.00574036 2.22091675 -0.00869751 C3.75877665 -0.01072573 5.29666309 -0.00528343 6.83447266 0.00732422 C9.18060031 0.02344377 11.5250178 0.00741087 13.87109375 -0.01171875 C15.37239961 -0.009737 16.87370441 -0.00589473 18.375 0 C19.07094269 -0.00607269 19.76688538 -0.01214539 20.48391724 -0.0184021 C25.78665764 0.05783733 28.89263902 1.34651846 32.70825195 4.96777344 C36.07216931 8.9764955 38.83255191 13.0045804 41.2421875 17.6484375 C41.61601563 18.36386719 41.98984375 19.07929688 42.375 19.81640625 C53.9545993 42.63391175 62.26333956 67.40477142 70.1171875 91.7109375 C70.41657227 92.63044189 70.71595703 93.54994629 71.02441406 94.49731445 C71.42805176 95.77288208 71.42805176 95.77288208 71.83984375 97.07421875 C72.19381226 98.1866394 72.19381226 98.1866394 72.55493164 99.3215332 C73.0546875 101.3984375 73.0546875 101.3984375 73.0546875 105.3984375 C73.7146875 105.3984375 74.3746875 105.3984375 75.0546875 105.3984375 C75.16135742 104.79257812 75.26802734 104.18671875 75.37792969 103.5625 C76.54563951 97.30261227 78.18851981 91.39982108 80.3046875 85.3984375 C80.64330811 84.43421875 80.98192871 83.47 81.33081055 82.4765625 C88.27951253 63.09912865 96.24469209 43.96833517 104.9921875 25.3359375 C105.40380127 24.44583984 105.81541504 23.55574219 106.23950195 22.63867188 C110.27855936 14.26088767 115.65549413 5.56542546 124.23461914 1.31958008 C129.67445603 -0.45727947 135.52478085 0.0662778 141.20141602 0.08276367 C143.48176914 0.08592307 145.76082266 0.06244212 148.04101562 0.03710938 C149.50260254 0.03483593 150.96419292 0.0341331 152.42578125 0.03515625 C153.74505615 0.03217529 155.06433105 0.02919434 156.42358398 0.02612305 C160.35682135 0.42941673 162.73669765 1.27276003 166.0546875 3.3984375 C169.6714985 7.93171696 170.88471967 13.82813058 171.6796875 19.4609375 C171.85733643 20.66145752 171.85733643 20.66145752 172.03857422 21.88623047 C177.0039086 58.22008168 176.24422047 95.63951115 176.23999023 132.23950195 C176.23988617 136.98586251 176.25384365 141.7320815 176.27076244 146.47840786 C176.28181994 150.17312816 176.28391184 153.86781252 176.28338051 157.56254768 C176.28455826 159.3164935 176.28896856 161.07044032 176.29671288 162.82436943 C176.30643976 165.2416648 176.3036707 167.65862777 176.29760742 170.07592773 C176.30322693 170.793004 176.30884644 171.51008026 176.31463623 172.24888611 C176.28304637 177.17007863 176.28304637 177.17007863 174.0546875 179.3984375 C171.42528554 179.59809123 168.90348587 179.6782786 166.2734375 179.6640625 C165.50414917 179.66597595 164.73486084 179.6678894 163.94226074 179.66986084 C162.3148567 179.67122258 160.6874418 179.66752689 159.06005859 179.65917969 C156.56453119 179.64847971 154.06972368 179.65907501 151.57421875 179.671875 C149.99479007 179.6705534 148.41536184 179.667991 146.8359375 179.6640625 C146.0869519 179.66811096 145.33796631 179.67215942 144.56628418 179.67633057 C139.28460993 179.62835993 139.28460993 179.62835993 137.0546875 177.3984375 C136.7773571 175.09084892 136.7773571 175.09084892 136.73825073 172.146698 C136.7186731 171.03328033 136.69909546 169.91986267 136.67892456 168.77270508 C136.66741364 167.54559814 136.65590271 166.31849121 136.64404297 165.05419922 C136.62424377 163.76643585 136.60444458 162.47867249 136.58404541 161.15188599 C136.52988987 157.61500701 136.4879024 154.07807451 136.44804144 150.54100943 C136.40435738 146.84666744 136.34956267 143.15249099 136.29592896 139.45828247 C136.19602664 132.46024443 136.10616721 125.46211463 136.01988423 118.46389687 C135.92118066 110.49775045 135.81132926 102.53177009 135.70052505 94.56578422 C135.47281068 78.17682166 135.25914911 61.78770698 135.0546875 45.3984375 C132.90512744 50.59979811 130.75946158 55.80274396 128.61700439 61.0070343 C127.89152618 62.76788485 127.16508423 64.52833872 126.43756104 66.28834534 C115.45819141 92.85475308 105.64665363 119.8070281 96.87207031 147.18041992 C96.63648911 147.90620743 96.4009079 148.63199493 96.15818787 149.379776 C95.52474693 151.33226874 94.89939626 153.287381 94.2746582 155.24267578 C93.15171798 158.14744371 92.1801642 160.14356046 90.0546875 162.3984375 C84.96892233 164.09369256 79.55342105 163.58436154 74.23071289 163.58374023 C72.12821185 163.58592604 70.02623633 163.60409295 67.92382812 163.62304688 C66.58333512 163.62598126 65.24283963 163.62796575 63.90234375 163.62890625 C62.68554932 163.63301514 61.46875488 163.63712402 60.21508789 163.64135742 C57.16463529 163.40688849 55.51733596 163.16911968 53.0546875 161.3984375 C48.9745485 155.30321673 47.40561678 147.25707097 45.39453125 140.30322266 C36.26514746 108.8869574 25.9516242 77.48338726 13.0546875 47.3984375 C12.7246875 47.3984375 12.3946875 47.3984375 12.0546875 47.3984375 C10.89419657 72.81099295 9.92773855 98.21216272 9.4921875 123.6484375 C9.4538186 125.84586663 9.4154076 128.04329502 9.37695312 130.24072266 C9.32186739 133.39930057 9.26678984 136.55787855 9.2119751 139.71646118 C9.05779638 148.48691323 8.87450828 157.25538675 8.6171875 166.0234375 C8.59003662 167.19036133 8.56288574 168.35728516 8.53491211 169.55957031 C8.50147705 170.59178711 8.46804199 171.62400391 8.43359375 172.6875 C8.39600952 173.99775146 8.39600952 173.99775146 8.35766602 175.33447266 C8.0546875 177.3984375 8.0546875 177.3984375 6.0546875 179.3984375 C2.921875 179.65722656 2.921875 179.65722656 -1.0703125 179.6640625 C-1.7730127 179.66597595 -2.47571289 179.6678894 -3.19970703 179.66986084 C-4.68587604 179.67122225 -6.17205695 179.66752882 -7.65820312 179.65917969 C-9.93646896 179.64847904 -12.21394627 179.65907589 -14.4921875 179.671875 C-15.93489758 179.6705534 -17.37760716 179.66799099 -18.8203125 179.6640625 C-20.13773438 179.66180664 -21.45515625 179.65955078 -22.8125 179.65722656 C-25.9453125 179.3984375 -25.9453125 179.3984375 -27.9453125 177.3984375 C-28.19927979 174.75184631 -28.19927979 174.75184631 -28.20410156 171.33618164 C-28.21341454 169.41006546 -28.21341454 169.41006546 -28.22291565 167.44503784 C-28.21930091 166.02455547 -28.21529674 164.60407404 -28.2109375 163.18359375 C-28.21309367 161.71167901 -28.21590879 160.2397651 -28.21934509 158.76785278 C-28.22506942 154.81740106 -28.21634215 150.86711246 -28.20306015 146.9166832 C-28.19532125 144.46371115 -28.19073935 142.0107508 -28.18692017 139.55776978 C-28.14080396 114.13297909 -27.75321374 88.7680227 -25.9453125 63.3984375 C-25.86186584 62.22172485 -25.86186584 62.22172485 -25.7767334 61.02124023 C-22.36679937 13.6204989 -22.36679937 13.6204989 -16.6171875 4.80859375 C-11.71034884 0.66988171 -6.21080675 -0.05451169 0 0 Z " fill="#EDF2FC" transform="translate(1431.9453125,413.6015625)"/>
<path d="M0 0 C6.47419787 3.52859126 15.1361316 10.67460695 18.47265625 17.34765625 C18.59271172 19.28737003 18.64998969 21.23109241 18.67797852 23.17431641 C18.70789635 25.00598862 18.70789635 25.00598862 18.73841858 26.87466431 C18.75540281 28.21201448 18.77228162 29.549366 18.7890625 30.88671875 C18.80963228 32.25150178 18.83062876 33.61627843 18.85203552 34.98104858 C18.90725384 38.57473598 18.95666412 42.16848085 19.00488281 45.76226807 C19.05509962 49.42880371 19.11078474 53.09525581 19.16601562 56.76171875 C19.27359425 63.95696051 19.37503982 71.15227171 19.47265625 78.34765625 C20.37649048 77.62993042 20.37649048 77.62993042 21.29858398 76.89770508 C22.09723877 76.26888428 22.89589355 75.64006348 23.71875 74.9921875 C24.50693115 74.36932861 25.2951123 73.74646973 26.10717773 73.10473633 C35.19976889 66.35074948 44.71077091 64.9987513 55.78515625 65.03515625 C56.75388672 65.01904297 57.72261719 65.00292969 58.72070312 64.98632812 C71.4279923 64.97785095 83.23302253 68.77781127 92.71875 77.44921875 C107.35283245 93.28922781 110.34614707 114.54313872 109.57763672 135.31201172 C108.6322399 153.64391554 103.41535085 171.68596224 89.67578125 184.5078125 C70.22686382 200.74972759 44.42626303 201.70863237 20.20751953 199.64550781 C8.87038509 198.41079044 -2.36674831 195.61512283 -12.52734375 190.34765625 C-13.33116832 190.04620414 -14.13499289 189.74475203 -14.96317577 189.434165 C-18.04704191 188.04406351 -20.14732178 186.76859955 -22.52734375 184.34765625 C-24.03795306 179.17608493 -23.82440949 174.05470123 -23.71020508 168.72290039 C-23.71229684 167.11761884 -23.71875184 165.51233793 -23.72923279 163.90708923 C-23.744902 159.55484274 -23.69848868 155.2052434 -23.64007783 150.85344243 C-23.58863566 146.29506387 -23.59165032 141.73670672 -23.58805847 137.17808533 C-23.57423126 129.52199081 -23.52308558 121.86689437 -23.4465332 114.21118164 C-23.34853837 104.39419807 -23.31040108 94.57795517 -23.29185963 84.76053715 C-23.27557425 76.31010771 -23.23333857 67.85983728 -23.18612838 59.40953135 C-23.17189189 56.69852839 -23.16088594 53.9875254 -23.15018654 51.27650642 C-23.13155579 47.01062154 -23.09676017 42.74514831 -23.0496006 38.47948647 C-23.03449006 36.91666945 -23.02432329 35.35379538 -23.01954269 33.79091263 C-23.01201321 31.65192097 -22.98603772 29.51390573 -22.95539856 27.37513733 C-22.94517575 26.1799904 -22.93495295 24.98484346 -22.92442036 23.75347996 C-21.83679806 14.42467602 -16.16737135 9.12298653 -9.1796875 3.4375 C-3.3200563 -0.85695425 -3.3200563 -0.85695425 0 0 Z M22.91838074 104.90592957 C17.87466358 110.80739874 17.60446084 115.82687662 17.7109375 123.3984375 C17.70756882 124.53419724 17.70420013 125.66995697 17.70072937 126.84013367 C17.70102712 129.22786005 17.71617212 131.61562585 17.74536133 134.00317383 C17.78522748 137.66670194 17.76599113 141.32664222 17.74023438 144.99023438 C17.74778864 147.31381616 17.7587372 149.63738993 17.7734375 151.9609375 C17.7664534 153.05779373 17.7594693 154.15464996 17.75227356 155.28474426 C17.8042863 158.0650879 17.89009398 160.62866596 18.47265625 163.34765625 C20.67839164 165.63062182 20.67839164 165.63062182 23.47265625 166.34765625 C24.395625 166.73050781 25.31859375 167.11335938 26.26953125 167.5078125 C34.28514918 169.60946842 44.45322672 169.84057251 52.09765625 166.34765625 C59.60300292 161.76531024 64.32787633 155.6621681 66.8125 147.21875 C69.23646733 133.00483507 69.07957059 118.10784048 61.78515625 105.41015625 C50.70681033 95.52946935 33.91970246 93.87631098 22.91838074 104.90592957 Z " fill="#EDF2FC" transform="translate(1266.52734375,396.65234375)"/>
<path d="M0 0 C10.00139216 8.51469873 16.22592165 19.71174287 18.015625 32.7734375 C18.61601189 42.09419795 19.0654859 51.52674589 14.015625 59.7734375 C7.48826036 66.78221298 -0.77713821 68.06793389 -9.984375 68.7734375 C-14.2885055 68.90099224 -18.58883054 68.89030768 -22.89453125 68.87109375 C-24.10257919 68.8696788 -25.31062714 68.86826385 -26.55528259 68.86680603 C-30.38583937 68.86124145 -34.21633611 68.84869553 -38.046875 68.8359375 C-40.65559811 68.83091792 -43.26432214 68.82635582 -45.87304688 68.82226562 C-52.24350981 68.81128363 -58.61393811 68.79458104 -64.984375 68.7734375 C-64.36170621 70.71152714 -63.73303439 72.64768887 -63.10180664 74.58300781 C-62.57762901 76.20061005 -62.57762901 76.20061005 -62.04286194 77.85089111 C-59.86628349 83.86055571 -56.69049233 86.31905593 -51.046875 89.0234375 C-49.51740234 89.77367187 -49.51740234 89.77367187 -47.95703125 90.5390625 C-39.02968489 94.24608149 -27.04088983 94.2122451 -17.984375 90.7734375 C-14.62684431 89.05204329 -11.3511209 87.2427962 -8.09765625 85.33203125 C-1.48352255 82.02081501 4.1494946 82.66726253 11.015625 84.7734375 C14.14505876 86.025211 16.68342513 87.30886953 19.015625 89.7734375 C19.73307649 93.18133208 19.71925253 94.50237517 19.015625 97.7734375 C18.81582031 98.75441406 18.61601563 99.73539063 18.41015625 100.74609375 C17.01463025 106.03336833 15.62957491 109.97304942 11.078125 113.2109375 C-11.52249807 125.81227175 -39.77139875 126.42024947 -64.421875 120.0234375 C-78.61218423 115.55520864 -89.87257766 107.49851677 -97.51953125 94.59765625 C-103.57995758 82.91315429 -105.36292319 71.12136236 -105.296875 58.0859375 C-105.29196045 56.9397998 -105.2870459 55.79366211 -105.28198242 54.61279297 C-105.02361765 35.87538467 -100.32445228 18.8103827 -87.484375 4.7109375 C-65.27091286 -16.36660897 -24.35389625 -18.1697917 0 0 Z M-59.4765625 24.453125 C-63.06793132 29.9797392 -65.09458722 35.18329439 -64.984375 41.7734375 C-59.05787374 41.82283451 -53.13149203 41.85915567 -47.20483398 41.88330078 C-45.18821119 41.89336523 -43.17160301 41.90701797 -41.1550293 41.92431641 C-38.25826411 41.94854519 -35.36169169 41.95991609 -32.46484375 41.96875 C-31.11002144 41.98423386 -31.11002144 41.98423386 -29.72782898 42.00003052 C-28.4668615 42.00025711 -28.4668615 42.00025711 -27.18041992 42.00048828 C-26.07122444 42.00715012 -26.07122444 42.00715012 -24.93962097 42.01394653 C-22.66113249 41.88219737 -22.66113249 41.88219737 -19.984375 39.7734375 C-18.25259839 35.2934067 -19.31959287 31.13188 -20.984375 26.7734375 C-24.4075159 21.16840792 -28.35724786 17.83257892 -34.73046875 16.171875 C-44.60078043 14.42703654 -53.07976326 16.3901827 -59.4765625 24.453125 Z " fill="#EDF2FC" transform="translate(1199.984375,473.2265625)"/>
<path d="M0 0 C1.27230469 -0.01611328 2.54460937 -0.03222656 3.85546875 -0.04882812 C18.99446738 -0.05655999 33.57256253 2.88909618 45 13.4375 C58.04504951 27.56963697 58.58656458 45.21230241 58.48828125 63.32421875 C58.48776159 65.22898864 58.48828337 67.13375908 58.48979187 69.03852844 C58.48970278 73.00127316 58.47939255 76.96381175 58.46118164 80.92651367 C58.4383252 86.01201947 58.43798772 91.0972294 58.44469929 96.18277264 C58.4480318 100.1023066 58.44142561 104.02177262 58.43157005 107.94129372 C58.42771811 109.81803851 58.42656981 111.69479085 58.4281559 113.57153893 C58.42852511 116.18024678 58.41595293 118.788567 58.3996582 121.3972168 C58.40213562 122.17376617 58.40461304 122.95031555 58.40716553 123.75039673 C58.3537642 129.0837358 58.3537642 129.0837358 56.125 131.3125 C51.70748102 131.82788406 47.25662536 131.72935099 42.8125 131.75 C41.57564453 131.78287109 40.33878906 131.81574219 39.06445312 131.84960938 C29.9353836 131.903861 29.9353836 131.903861 25.9453125 128.9921875 C25.34460937 128.10789062 24.74390625 127.22359375 24.125 126.3125 C23.60292969 125.71824219 23.08085938 125.12398437 22.54296875 124.51171875 C21.40364583 123.11197917 20.26432292 121.71223958 19.125 120.3125 C18.50625 120.87517578 18.50625 120.87517578 17.875 121.44921875 C5.91288879 132.04957176 -5.85175491 135.29592994 -21.875 135.3125 C-32.75512874 134.64388874 -42.20518758 131.47913893 -50.34375 124.05078125 C-58.15693938 115.18121678 -60.25205433 104.31006861 -60.16015625 92.8359375 C-59.5092935 84.79377039 -57.0923507 76.57332084 -51.875 70.3125 C-51.44058594 69.76464844 -51.00617188 69.21679688 -50.55859375 68.65234375 C-37.20715214 53.4270156 -12.65766949 50.89961673 6.24609375 49.46484375 C10.54193117 49.23751992 14.82492188 49.22687898 19.125 49.3125 C18.58459253 47.22332701 18.01671098 45.1412493 17.4375 43.0625 C17.12425781 41.90234375 16.81101562 40.7421875 16.48828125 39.546875 C14.50119231 34.83252073 11.91183976 33.08745537 7.296875 31.0859375 C3.62724463 30.19112615 0.13212121 29.9285106 -3.625 29.9375 C-4.68062134 29.93991699 -4.68062134 29.93991699 -5.75756836 29.94238281 C-13.38821344 30.12087743 -19.13161883 32.59631778 -25.5625 36.5625 C-30.52602649 39.18474041 -34.29047309 38.7751356 -39.62109375 37.21875 C-40.83925781 36.7546875 -42.05742188 36.290625 -43.3125 35.8125 C-43.94865234 35.57402344 -44.58480469 35.33554687 -45.24023438 35.08984375 C-46.78902732 34.50759076 -48.33260253 33.91148931 -49.875 33.3125 C-50.24470398 25.79518568 -49.99739867 17.89009064 -45.609375 11.45703125 C-34.44923733 0.49416874 -14.51262093 -0.03653731 0 0 Z M-18.52734375 84.16796875 C-20.90398498 87.94992827 -21.07625633 91.91956005 -20.875 96.3125 C-19.47012762 99.82468096 -18.29783378 101.51123543 -14.98828125 103.375 C-7.89567796 106.22732161 -0.86837743 105.56532429 6.3125 103.3125 C11.91575853 99.3279606 17.15558691 94.02640827 19.125 87.3125 C19.36549932 83.95744474 19.36549932 83.95744474 19.25 80.5 C19.23195313 79.33855469 19.21390625 78.17710937 19.1953125 76.98046875 C19.17210937 76.10003906 19.14890625 75.21960938 19.125 74.3125 C6.08956131 73.82569939 -9.1252451 73.61005656 -18.52734375 84.16796875 Z " fill="#EDF2FC" transform="translate(1691.875,461.6875)"/>
<path d="M0 0 C2.42722261 3.48510503 3.68829223 7.08518347 5.015625 11.09765625 C5.4178125 12.24911133 5.4178125 12.24911133 5.828125 13.42382812 C6.92897147 16.64492735 7.765625 19.10025097 7.765625 22.53515625 C-3.58811475 23.22675461 -3.58811475 23.22675461 -8.734375 20.53515625 C-14.07886497 17.80439495 -19.3487125 17.67718796 -25.234375 18.53515625 C-28.98218956 20.6339324 -30.59244181 22.64711533 -32.234375 26.53515625 C-32.81303299 30.73606295 -32.70162591 34.42850935 -31.046875 38.34765625 C-27.39759083 42.87737076 -27.39759083 42.87737076 -22.0859375 44.8515625 C-17.56451424 44.96422255 -14.41987181 44.23197928 -10.234375 42.53515625 C-9.42097656 42.67953125 -8.60757813 42.82390625 -7.76953125 42.97265625 C-2.95117525 43.73933389 1.77097181 43.64054615 6.640625 43.59765625 C7.61515625 43.59314453 8.5896875 43.58863281 9.59375 43.58398438 C11.98443934 43.57226531 14.3749994 43.55585844 16.765625 43.53515625 C17.27734594 44.90583735 17.77439992 46.281997 18.265625 47.66015625 C18.5440625 48.42585938 18.8225 49.1915625 19.109375 49.98046875 C20.51710767 55.46057092 19.87189107 59.09389797 17.16015625 64 C16.59546631 65.03527832 16.03077637 66.07055664 15.44897461 67.13720703 C14.83159424 68.23790527 14.21421387 69.33860352 13.578125 70.47265625 C12.94463135 71.62491699 12.3111377 72.77717773 11.65844727 73.96435547 C7.05034253 82.33613089 2.34424478 90.65502165 -2.39160156 98.95507812 C-5.2335657 103.9454215 -8.01686897 108.95987639 -10.7265625 114.0234375 C-11.3033374 115.10093262 -11.8801123 116.17842773 -12.47436523 117.28857422 C-13.5710197 119.34560968 -14.66208301 121.40564014 -15.74633789 123.46923828 C-18.96542335 129.50910766 -22.3492309 135.65001215 -27.234375 140.53515625 C-32.14395936 140.98853383 -34.96973575 139.97460843 -39.21484375 137.5625 C-40.36573486 136.91740479 -41.51662598 136.27230957 -42.70239258 135.60766602 C-43.94232284 134.8961752 -45.18214772 134.18450069 -46.421875 133.47265625 C-47.71111798 132.74474506 -49.0010874 132.01811915 -50.29174805 131.29272461 C-52.9566466 129.79312042 -55.61781068 128.28718466 -58.27636719 126.77636719 C-63.20139137 123.98155524 -68.15552842 121.24012506 -73.11083984 118.49951172 C-76.47366769 116.63817671 -79.83106526 114.76736458 -83.1875 112.89453125 C-86.91411527 110.81743973 -90.65060181 108.76237174 -94.40625 106.73828125 C-95.16123779 106.32698975 -95.91622559 105.91569824 -96.6940918 105.49194336 C-98.03962256 104.75973592 -99.38968779 104.03576289 -100.74536133 103.32250977 C-103.10471203 102.02931194 -104.99202421 100.83308616 -106.69921875 98.734375 C-108.07348094 93.08685956 -105.82819921 88.16184419 -103.09375 83.31640625 C-102.77543716 82.7452861 -102.45712433 82.17416595 -102.12916565 81.58573914 C-101.09125277 79.72951074 -100.03801895 77.88249274 -98.984375 76.03515625 C-98.25316304 74.7340342 -97.52295022 73.43235018 -96.79370117 72.13012695 C-94.96113403 68.86395647 -93.11604121 65.6050944 -91.26531982 62.34918213 C-89.75284693 59.68787097 -88.2457759 57.02350842 -86.73828125 54.359375 C-85.15557595 51.56254614 -83.57178179 48.76640828 -81.98193359 45.97363281 C-77.33032649 37.77994962 -72.86057416 29.49099622 -68.45825195 21.16088867 C-67.94866943 20.20674072 -67.43908691 19.25259277 -66.9140625 18.26953125 C-66.46788574 17.42616211 -66.02170898 16.58279297 -65.56201172 15.71386719 C-63.28910713 11.98392961 -62.16100312 10.8115237 -57.84301758 9.52368164 C-56.44074636 9.21544272 -55.03579028 8.91926167 -53.62890625 8.6328125 C-52.87204025 8.46897568 -52.11517426 8.30513885 -51.33537292 8.13633728 C-48.90799153 7.61289305 -46.47773438 7.10467854 -44.046875 6.59765625 C-41.67265985 6.09331444 -39.29916702 5.58573347 -36.92599487 5.07650757 C-35.35230699 4.73890929 -33.77818706 4.40331872 -32.2036438 4.06973267 C-25.66465383 2.67034652 -19.20996974 1.01708123 -12.7565918 -0.73266602 C-3.91957698 -2.56965274 -3.91957698 -2.56965274 0 0 Z " fill="#FDC120" transform="translate(208.234375,145.46484375)"/>
<path d="M0 0 C2.23784531 1.69689033 4.13857408 3.30421706 6.125 5.25 C6.63675781 5.72824219 7.14851563 6.20648438 7.67578125 6.69921875 C8.68267677 7.65434587 9.67217173 8.628183 10.64257812 9.62036133 C11.82989915 10.82711512 13.08614063 11.96525787 14.3515625 13.08984375 C17.07245371 17.89331283 16.41432263 22.90565339 16.25 28.3125 C16.23195313 29.43462891 16.21390625 30.55675781 16.1953125 31.71289062 C16.14827856 34.47613447 16.08256317 37.23762698 16 40 C16.77190674 39.97905273 17.54381348 39.95810547 18.33911133 39.93652344 C21.83010885 39.85347328 25.3208988 39.80137406 28.8125 39.75 C30.02744141 39.71648437 31.24238281 39.68296875 32.49414062 39.6484375 C33.65751953 39.63554687 34.82089844 39.62265625 36.01953125 39.609375 C37.09307861 39.58842773 38.16662598 39.56748047 39.27270508 39.54589844 C42 40 42 40 43.84667969 41.70800781 C45.97015953 45.92799697 45.47043139 50.36565543 45.4375 55 C45.45748047 55.99773437 45.47746094 56.99546875 45.49804688 58.0234375 C45.49708008 59.46589844 45.49708008 59.46589844 45.49609375 60.9375 C45.49794678 61.81277344 45.4997998 62.68804687 45.50170898 63.58984375 C44.82169901 66.85653886 43.58558646 67.92500169 41 70 C38.25097656 70.45410156 38.25097656 70.45410156 35.140625 70.390625 C34.02558594 70.37773437 32.91054687 70.36484375 31.76171875 70.3515625 C30.60285156 70.31804687 29.44398437 70.28453125 28.25 70.25 C27.07566406 70.23195313 25.90132812 70.21390625 24.69140625 70.1953125 C21.7934466 70.1481912 18.89713582 70.08241305 16 70 C16.06722528 77.81076993 16.15712041 85.62104818 16.26245117 93.43139648 C16.29722663 96.08605803 16.32367187 98.74042896 16.34643555 101.39526367 C16.38013789 105.22083852 16.43246396 109.0457853 16.48828125 112.87109375 C16.49467117 114.04957382 16.5010611 115.22805389 16.50764465 116.44224548 C16.6435528 124.13555916 17.12919594 131.32178229 22 137.5625 C28.111665 140.49100615 35.52129998 139.4008 42 138 C51.62242052 155.81929727 51.62242052 155.81929727 51 165 C49.67083439 165.63381508 48.33635391 166.25648484 47 166.875 C46.2575 167.22304688 45.515 167.57109375 44.75 167.9296875 C29.94346391 173.69245865 11.56200731 173.54111469 -3.3125 168.3125 C-12.10623675 164.39308735 -16.60064596 158.81320073 -20.7734375 150.2578125 C-24.26756873 140.9772219 -24.26672491 132.01539732 -24.1953125 122.24609375 C-24.19157551 120.734382 -24.18873179 119.22266781 -24.18673706 117.71095276 C-24.17915453 113.76049946 -24.15955326 109.81019668 -24.1373291 105.85980225 C-24.11675378 101.81736282 -24.10771052 97.77489873 -24.09765625 93.73242188 C-24.07630147 85.82154604 -24.04223175 77.91079182 -24 70 C-25.18078125 70.04640625 -26.3615625 70.0928125 -27.578125 70.140625 C-29.13539134 70.17814949 -30.69268508 70.21454893 -32.25 70.25 C-33.02730469 70.28351563 -33.80460937 70.31703125 -34.60546875 70.3515625 C-38.33337466 70.41528739 -40.3640063 70.42955033 -43.51586914 68.30078125 C-45.25551933 65.60387989 -45.50284849 64.12808565 -45.49609375 60.9375 C-45.49673828 59.97585938 -45.49738281 59.01421875 -45.49804688 58.0234375 C-45.47806641 57.02570313 -45.45808594 56.02796875 -45.4375 55 C-45.44458984 54.00226563 -45.45167969 53.00453125 -45.45898438 51.9765625 C-45.38361569 43.3265564 -45.38361569 43.3265564 -42 40 C-40.00708008 39.54589844 -40.00708008 39.54589844 -37.76953125 39.609375 C-36.56586914 39.62871094 -36.56586914 39.62871094 -35.33789062 39.6484375 C-34.08782227 39.69871094 -34.08782227 39.69871094 -32.8125 39.75 C-31.96751953 39.76804687 -31.12253906 39.78609375 -30.25195312 39.8046875 C-28.16748427 39.85179414 -26.08359856 39.92353767 -24 40 C-24.08640747 39.00371582 -24.08640747 39.00371582 -24.17456055 37.98730469 C-25.78216974 16.65364625 -25.78216974 16.65364625 -20.41992188 10.27124023 C-18.07078655 7.95963227 -15.64235333 5.97819425 -13 4 C-12.31421875 3.38898438 -11.6284375 2.77796875 -10.921875 2.1484375 C-7.03692757 -1.12401822 -4.76971498 -1.39872623 0 0 Z " fill="#EDF2FC" transform="translate(1924,425)"/>
<path d="M0 0 C2.38750862 1.68097092 4.17384851 3.14766318 6.1875 5.1875 C6.69474609 5.67025391 7.20199219 6.15300781 7.72460938 6.65039062 C12.97298624 11.72177942 16.40622146 15.42932363 17 23 C17.3403125 22.35933594 17.680625 21.71867187 18.03125 21.05859375 C22.6032028 12.89960351 28.2544037 6.28313305 37.08984375 2.65234375 C43.86777989 1.13299431 51.11306003 1.3937801 58 2 C60 4 60 4 60.22705078 7.34814453 C60.22673375 8.77640633 60.21541361 10.20469212 60.1953125 11.6328125 C60.1924826 12.38464813 60.18965271 13.13648376 60.18673706 13.91110229 C60.17552874 16.31589578 60.15042352 18.72031881 60.125 21.125 C60.11497102 22.75390088 60.10584503 24.38280758 60.09765625 26.01171875 C60.07558735 30.00795556 60.04105351 34.00391494 60 38 C56.31269545 38.81965588 53.97451304 38.96846626 50.3125 38 C42.68114488 36.37197757 36.61434605 36.79634815 29.6875 40.5625 C22.04288521 45.6309515 19.7133507 51.85453196 17.6242981 60.53634644 C16.50296515 66.75758733 16.55905243 72.98284438 16.55859375 79.28515625 C16.54679092 80.71814806 16.53341972 82.15112771 16.51856995 83.58409119 C16.48274543 87.31626497 16.4622808 91.04833073 16.44702148 94.78063965 C16.4219706 100.78418025 16.38254088 106.78748297 16.32512093 112.79080009 C16.30883046 114.87980188 16.30502058 116.96857509 16.30210876 119.05763245 C16.29192215 120.32002243 16.28173553 121.58241241 16.27124023 122.88305664 C16.26696518 123.99491837 16.26269012 125.10678009 16.25828552 126.25233459 C16 129 16 129 14 132 C11.25714531 132.2917727 8.74342461 132.39605798 6 132.36328125 C4.81277344 132.36402901 4.81277344 132.36402901 3.6015625 132.36479187 C1.92705781 132.36244989 0.25254971 132.35271402 -1.421875 132.33618164 C-3.9899024 132.31259275 -6.55689186 132.31561887 -9.125 132.32226562 C-10.75000621 132.31668888 -12.37500804 132.30957902 -14 132.30078125 C-14.77085938 132.30169266 -15.54171875 132.30260406 -16.3359375 132.30354309 C-21.76897453 132.23102547 -21.76897453 132.23102547 -24 130 C-24.26564884 127.99587059 -24.26564884 127.99587059 -24.28761292 125.48544312 C-24.30047836 124.5350415 -24.31334381 123.58463989 -24.32659912 122.60543823 C-24.33040588 121.55921295 -24.33421265 120.51298767 -24.33813477 119.43505859 C-24.34967087 118.33570984 -24.36120697 117.23636108 -24.37309265 116.10369873 C-24.40751541 112.45193085 -24.42592725 108.80033237 -24.44140625 105.1484375 C-24.44830915 103.90254475 -24.45521206 102.65665199 -24.46232414 101.37300491 C-24.49450765 95.45699033 -24.51895107 89.54102909 -24.531138 83.62494409 C-24.5453695 76.80558194 -24.58915572 69.98725892 -24.65863949 63.1682409 C-24.71680013 57.25547085 -24.73623695 51.34295525 -24.74201775 45.42988968 C-24.74991212 42.91887631 -24.76955959 40.40787105 -24.80124092 37.89704514 C-24.84270869 34.37764803 -24.83984518 30.8608666 -24.82641602 27.34130859 C-24.84844086 26.3072287 -24.8704657 25.2731488 -24.89315796 24.20773315 C-24.80800441 17.62490137 -23.43861619 14.27104723 -18.75854397 9.5984745 C-18.17822446 9.07097792 -17.59790495 8.54348133 -17 8 C-16.13375 7.1646875 -15.2675 6.329375 -14.375 5.46875 C-13.59125 4.8190625 -12.8075 4.169375 -12 3.5 C-11.21625 2.8296875 -10.4325 2.159375 -9.625 1.46875 C-6.07987295 -0.51483299 -4.01028102 -0.60921209 0 0 Z " fill="#EEF3FD" transform="translate(1806,461)"/>
<path d="M0 0 C1.06605469 0.00644531 2.13210938 0.01289063 3.23046875 0.01953125 C5.8125 0.1875 5.8125 0.1875 6.8125 1.1875 C6.85330783 3.18708364 6.85504356 5.18795254 6.8125 7.1875 C3.09312905 8.3007811 -0.04372351 8.0805024 -3.87109375 7.734375 C-8.45024432 8.63012789 -10.74297766 12.53755446 -13.25 16.203125 C-14.2090625 17.80414063 -14.2090625 17.80414063 -15.1875 19.4375 C-15.53361328 20.00742676 -15.87972656 20.57735352 -16.23632812 21.16455078 C-18.18832686 24.40359168 -19.97396549 27.69332065 -21.6875 31.0625 C-25.24125807 37.48523883 -29.84049976 41.55075094 -36.80859375 43.8515625 C-42.09518284 45.32953364 -47.09117656 45.72499911 -52.5625 45.6875 C-53.47427002 45.68540527 -54.38604004 45.68331055 -55.32543945 45.68115234 C-63.36869712 45.49398354 -71.2618518 44.1131482 -77.1875 38.1875 C-76.8125 36.0625 -76.8125 36.0625 -76.1875 34.1875 C-72.30756123 33.11461258 -70.61528074 33.1874049 -67.125 35.125 C-61.79507299 37.42874857 -56.84701318 37.64174914 -51.125 37.6875 C-50.28638428 37.70546631 -49.44776855 37.72343262 -48.58374023 37.74194336 C-42.52504721 37.68559722 -37.34174713 36.48548119 -32.1875 33.1875 C-28.74187624 29.32834079 -26.50741818 24.78136369 -24.06640625 20.25390625 C-12.98340565 -0.1739555 -12.98340565 -0.1739555 0 0 Z " fill="#F3BB25" transform="translate(264.1875,136.8125)"/>
<path d="M0 0 C0.66 0.33 1.32 0.66 2 1 C1.00777435 1.70798737 0.01554871 2.41597473 -1.00674438 3.14541626 C-7.11854373 7.99626016 -12.01362439 12.67760369 -13.29022217 20.63787842 C-13.89175871 27.45061497 -13.73350346 34.25606634 -13.5859375 41.0859375 C-13.58225755 43.59941456 -13.5847688 46.11290758 -13.59317017 48.62637329 C-13.59813151 54.53105075 -13.5414011 60.43252692 -13.45364916 66.33649981 C-13.34763932 73.72945686 -13.33941631 81.12202187 -13.328125 88.515625 C-13.2963757 101.67823568 -13.17914795 114.83861148 -13 128 C-13.33 128 -13.66 128 -14 128 C-14.16377854 113.27461342 -14.28708594 98.54934796 -14.3626852 83.82323456 C-14.39872613 76.9850361 -14.44783028 70.1474047 -14.52807617 63.30957031 C-14.60550068 56.70898233 -14.64600689 50.10882796 -14.6641407 43.50776672 C-14.67706121 40.99114213 -14.7022925 38.47454926 -14.7401104 35.95817566 C-14.79103211 32.42909491 -14.79791893 28.9024367 -14.79467773 25.37304688 C-14.81984467 24.33582489 -14.8450116 23.29860291 -14.87094116 22.22994995 C-14.80626804 15.70923423 -13.51280261 12.33580086 -8.8878336 7.6919632 C-8.26484851 7.13361534 -7.64186342 6.57526749 -7 6 C-6.33723777 5.40171135 -5.67447554 4.8034227 -4.9916296 4.18700409 C-3.35682929 2.75738795 -1.6823484 1.37334563 0 0 Z " fill="#E1E4ED" transform="translate(1796,463)"/>
<path d="M0 0 C0.66 0.33 1.32 0.66 2 1 C1.28082397 1.54636108 1.28082397 1.54636108 0.54711914 2.10375977 C-10.37564474 10.68606221 -10.37564474 10.68606221 -15.28515625 23.18359375 C-15.63557702 28.80375378 -15.48942132 34.39229307 -15 40 C-15.33 40 -15.66 40 -16 40 C-17.90597148 18.02401552 -17.90597148 18.02401552 -13.7265625 11.875 C-11.14055602 8.84648026 -8.18422202 6.38924081 -5 4 C-4.05511719 3.24203125 -3.11023437 2.4840625 -2.13671875 1.703125 C-1.43160156 1.14109375 -0.72648437 0.5790625 0 0 Z " fill="#D1D5DE" transform="translate(1916,425)"/>
<path d="M0 0 C0.66 0.33 1.32 0.66 2 1 C-3.28 6.28 -8.56 11.56 -14 17 C-14 12.95607032 -12.51908749 11.99868382 -9.8125 9.0625 C-9.03519531 8.20785156 -8.25789063 7.35320312 -7.45703125 6.47265625 C-5.09786332 4.09848566 -2.65532732 2.0327639 0 0 Z " fill="#CED4DF" transform="translate(1120,472)"/>
<path d="M0 0 C0.66 0.33 1.32 0.66 2 1 C-3.28 6.28 -8.56 11.56 -14 17 C-14 12.08113186 -10.31173311 9.3948461 -7 6 C-4.72300284 3.91201998 -2.39497582 1.9550823 0 0 Z " fill="#D0D5DF" transform="translate(1260,398)"/>
<path d="M0 0 C0.66 0.33 1.32 0.66 2 1 C-2.95 5.95 -7.9 10.9 -13 16 C-13 11.38794096 -10.11229546 9.20006084 -7 6 C-4.7269604 3.92205163 -2.39561112 1.93491668 0 0 Z " fill="#CED2DB" transform="translate(1796,463)"/>
<path d="M0 0 C0.66 0.33 1.32 0.66 2 1 C-1.96 4.96 -5.92 8.92 -10 13 C-10 9.28115772 -9.1259934 8.63852271 -6.6875 5.9375 C-5.76517578 4.89916016 -5.76517578 4.89916016 -4.82421875 3.83984375 C-3 2 -3 2 0 0 Z " fill="#D2D6E0" transform="translate(1837,467)"/>
</svg>
